<mxfile host="65bd71144e">
    <diagram id="ljutTzY4dMCiSETziaOl" name="第 1 页">
        <mxGraphModel dx="634" dy="1606" grid="1" gridSize="10" guides="1" tooltips="1" connect="1" arrows="0" fold="1" page="1" pageScale="1" pageWidth="827" pageHeight="1169" math="0" shadow="0">
            <root>
                <mxCell id="0"/>
                <mxCell id="1" parent="0"/>
                <mxCell id="16" value="" style="shape=image;verticalLabelPosition=bottom;labelBackgroundColor=#ffffff;verticalAlign=top;aspect=fixed;imageAspect=0;image=data:image/png,iVBORw0KGgoAAAANSUhEUgAAAbIAAAEZCAIAAAB9yjdmAAAACXBIWXMAABJ0AAASdAHeZh94AAAAEXRFWHRTb2Z0d2FyZQBTbmlwYXN0ZV0Xzt0AACAASURBVHic7b19VFNnuvf/nef0zNi8FHlJ0EJIgVhwwIRUBwQcwYUZcJZOO4M8dminRbrEso7O8uVnpc5D2ym/oXZYtV0z+lDpKtr+Wlp/6Oqbv1N80EE8CsJoAxRHKREaAqMkGl+SHT1zfJ75/bF3XjYEkpDwmuuzulaTfe9733e2yZf7uq57X9cPEpOXIehI+s1Lv3j8Tlv5wb/4e6Xc4or0SNiuHv3j/9s57mVVv96xPuH22ddqT4x9MdWvd6xP+NG11jf+56iTVL/esT4B5a/t83fCwYo3958gWB6a7glMC5FiAR6Y/9P/C+U+FolrY8ur8r//7lfx8+zv7ve0uftNJv3mpV88LrC/u9Y2WhMBdH6yr9PfyQY1Cx75ER787wD8kxNBwA+CcLU4b9Xzu7MeNbXu+58n6GcSHMxbWfJ/ZcpMbX84+Jf70z0XYuYTRKtF1X8vyfzf+gFEqX4c+ZD1u3OkiXMeZf5vl/9XnwExS5IWPsT8rZU0kfCKIJJFy39iofqJhcB909WGL46RTTr3Ye4jUpn2KHD/5neN/98nXdM9H2KWEIxGNEEQxDj8t+meAEEQxMyCZJEgCIIHySJBEAQPkkWCIAgeJIsEQRA8SBYJgiB4kCwSBEHwCKLt3AEma0tFblhX7ev1uvHOiit4ZaNaDENDefWpSZ/S89curx0CcPX4srUfTPpoBDFX8VIWQ2Rp2TEC3Oz+4oppcidETJCV5va1QySIBOE/nmVRINeo4zDQZ0KcZAomNMfoq3+9vH4qBtqYfkt8N66aNJEg/MaTb1GSoV4wrG1qNNimZDoEQRDTjafVoqnl3IyymkVlB7LVpgsbXrvuOPTsa2vXxVz7qvjiRwCwYG/tslh7U/+J42VHXE7DhQ0N4tqSBOGo1nHIKanMk3GvLXxnotmoc7ZatQff5Npcu4xoIghipjPbQi7Wszqrekli2fLre8+zRxYkx4D5tucjABCVHYjqLj5eBgBYsT17a252mf60/UwgZtmREqu25vje82zr0mePsGI6ForC3cVqaA+W1+vAxk+Kq0JP7KppZpvlqyvDump31ejYCExhgZYVzVM1exwBlpySyrzQgN4DgiAmldkmizj79pW1tcseTxfhvBUANkTFwqpttQIArHv/7aLzzNah4iUJ8+WAQxbhWFTi7N8tW5eIo5e7to4iS6MWWbSH7Au9vvq6LsVm5Y9z0MyqnsvisbmhK2NznFoB3URXhat2KtdEjTxouXyl4r1/eO78Xysfv2X5LubQBMcmCMLJrJNF4Hr3ANYpFq5A71ng2cULMXDBuR7csPRI7sIxu967+73j9ZGLGzxZ0ArpfFh17X3OI7qLOotSERkH9I08WWe8DWWEHJioLDa91dU0gW7/dej9zuWPhJ7/87LUMxMcmSAIV2bjdu6PGnqYh6NWLAdrQfdftvsZNyw9kruQ+fb0huLjG4qPb6jpYaZwVgrp/Ckczcm/bnxh2eKCGDx/4XKVdVpmQBBzjFm4WgTOX/vuNwmPp4sgj4q91/Nn+6JvxaNi4Npf3g6YOOiMt6FUpMZBZ18bKpYqxLg9PGqpCEAeKoZVp5/4aH4Z0f965rvQ5Y//YyNAdjRB+MmslEU28KJYWBaykNH1nLUf5bkLly9yRJwnTvPf9Ktz1QUF7W9yIZdCpdjSVe/meZWs0jwZ9Cf9CTdP0IgmCCLAeJRFeeKqlHD7m/DkJzMB2Pq1bV3TupGRDbyoY659VeyyNjxy8avFa9eVrD1SAsCqrbkwv8TPigzN+8uHCncXb65Qs+/1J/fs56LQQ2Yr5MriKiX71qI9tKfO3SqSIIhZBtVymWxySirz4NzTM1ls3H31pcdD//hCGBnRBOEnszHkMtOJK3ilJMvxOlMGfc8kayKAQ9cFeKQv//lJH4gg5jy0WpwMFAUvb1aK2dcudvcks3H31ZeW3QJl0CEI/yBZJAiC4EFGNEEQBA+SRYIgCB4kiwRBEDxm2Xbun/7gAYtPvf76I9EkzYcgiLkHrRYJgiB4kCwSBEHwIFkkCILgMct8i3MbSWnGM0rhna6WQ99INxYpQqy6j3f1m9ydw70xdL5TaZycaTCNpZ2X3DRK86tVMhgbSzuxR6ORwXCq8djRgE+BIKYTL2RRoFSnxQq4N6YrTS03J3VGQYzJxADCuyYGbczdIoSMPmO96hklOg83NrVN/exYGLMVMtw1ArjFQOZvjiKCmIF4kUEnLfZe9xdaE9hq0YlpyulOnxM03GJGLBWTHpfC0Dl9mjgaxmyY7ikQRKDx6FvUX2n64gr367xj6DNBEBkuGL8L4T+M2U0yXaF0JtXKMpmmMvk5QUwdE/AtCoRCYNYtFyOSG5Jx4vTw4uzkGAAA09+er3f8sCU19uMABrqbSm5wB9HdjeTkGGCgu+ly5KpciWtH4d7U1BTujwTT0d5exrstT4SXPxslvjf03u9u9no3yaOd73B+OqZpV6OXSWklpRnPxF37eBezslrFVmG909VyqJpxtjp8kS7OyqQ9Gg063/lu4bYcKTti5+EWd+tQ1pnouKbLxJyzJYg5hW+yKBAIARszW1cJktxsQUd7U4kN+fLUTbFJe02skAn3pkZePt1UAgDIl6duSk7da9e4mOTYjvamy7GrVsSlrhhuf8+atCk2dru++21IarKTw/vb81iJjEhuSHX2CvC8XaVNpNpWzb5yETKR4plqGE41vnMUWK/alqNaldbS1AasV61F5zul7D+YNL9a9cwexhmlkam2heo+Lu00QbiqKkO1Pra7bUSER5pfrZK5i/wQxBzGF1kUKBPiBDB1GGbdUpHDuaA7ZhoujI0LE7DLXqasvdtxEr8JMPWX2bAdEApsJ/QM5Nxp+fLYGFvfe4715o3+DlvqIokQzhXoNzcrvglIeMpU3fIOAFa8brmNPrtIpOHuHUjDZEAbcLTTJSut8YoBslChBOA0zql3THcfo1I+InU0AUiL3VikCJmcYDdBzGS8l0V5YlqsAKYr3X5UcZqxRCQ3JEtcDzjkjLHa/wjYLAMuJ8SIhBDEbcqO2+TaTSQApmUtzRgd9m9b/6G2fvsb4aqqDJXro4/e1v+SaoqksOo+Jk0kgg8vZZGt6GIbaJuLu3MikhuSJU6PoUB+LDXOq462vvfa9ccmdW5+wWqi0bEDMWmPRuNt0MbYePhuapGCZ3QTRHDgzVMuIbI0VhMbZ635PB75QgFgOqv3bZU3YGUgEMd4PnEaEYaJcKdL525Xthe09R86ZYRMtbGUNicSwYVnWQxPzo4RzFlNBHCMsQGCSDagLJAfS43zRgaO6fsHIMlNleePecoT4eX7lH/8Q/iiAE3UZxizFSGh3KdJ2qPRyHy8wNHOj7uYEGWGD8qoKNxdWVVRuSXL86kEMUPxZERLMhIlAAQxaU86V0bTXxA1oNzoPmFalZu6qgEAmI727rDUZC+6mUpOd9dkJ7u4F0fv0ZlemKajuseK7JFrQ+fHXYpnvHMPODBVtzTu0WiUGdv2eBd70Q3fAkSQLy9QNPtTNZsgpo9ZVsuF8i3OfOIKXtmoFhsmvwYsQUwSlEGHCCw5q9ViWLQnSROJWQtl0CECRlZp1WoZYGgorz413XMhiIlDRjRBEAQPMqIJgiB4kCwSBEHwIFkkCILgQbJIEATBg2SRIAiCB8kiQRAED9q36Cc7EirWhMFqOPzLwavTPJXli2pLEuwPL1/7qvjiR9MwiQV7a5fFwqqtOb33/FSNWaz88Cn8+y+6PuXeC3d+kj6/8WR57cQuJ634UikH0Nf13DZKHhSUeJTFEFladoyjeMscexp6LrFgb0kCvj294W1vMypOFFHZgWy16cKG165P8kDekRX77lNS/ecnP3UeYt5qNH741OoKTEAZhTs/UcpJEIMcj7J4x9D2hb24W4gsLVudBlJGF/b1lO+b7jkAwIaoWFz7atI10SPXy4qPT+Fw0oqd8bjYOlL+arvelaW/+JTy6dquT913HIMs6SIh0/kZaWJw45NvkSr/zVhWPCqe7ilMA0+/o5QzVz/8vZtUmS2/7+pkpD9/Rzr1syJmPRPwLTK22bpWZP2Adga/bj24z22TuVHTc8Z+kHcawjY3JszXdr75ko3XZaCn/AWz46T4P6qKFt08XIf1JTKRh7EAgOea9L1e4Jis2J69dYnF6WTcsPRIrpjz+m1YeiQXXxUPJdcuiwUAMN+eLnZdbG5YeiR3IVybXH2XMcuO2Bdo/SeOlx2B3avI4saz+exra9fZc9O5jLVgb+0ynDjevdjeeq/nz//We9arzydNioP+8/4W962sKR2/M8v4FqWtIHzCJ1mUJyZLbH2nZ2fdgoLo3SM1zqUpyVSu6QEACPI/U2k+ix765eDVfYaOn4alJIUBdsnbIYmGufElG+AwnwX5n6lSRg8nkhWVmBs1rWeAle+na9YkrNw3WmrZvv6Ea3hhFtG62rXrAIzWOPcsXFcr1tYc33CeFdBlZcu5OMmK7dlbl4jseocV25eWLb+493xv8fnesX2LnPm8Ynv21iUjb0bZgWw1ev5c3HuWm3P2kdecV4jNXSv99vSGYk55i7dfO+uNN6B4gRxM5zh3rva6/inl/HiAZJHwCW9k0SXqYuvX6u9M7owmC5lQBJvO4K6pfvDNescbW0evLUUtjAKucq9l+QXmY/UABPk/DcNAzxmvxrMvOYEzl8yamHmSAqAe8QvmAebL+0aPZce3eoGcVI1aGHqFM158tnWoeEnCfDlwHli+qHiJiPn2NKuJAM6+fdG75dsYbEhQP2zV1tjXgOd7a9Ojti6JehbX2dk6Rfz8te9+k6AOEXlTiitDJgRzvXU8yWNuM1AppYC3vsKM7AUCD9ckggBvZNEZdRHINepVmtlZwGCfoeOnqpSS9JQSjF4zrnw/XcOry3Kf/d/VlwyDjQmKnwhQb0NBmEJk66gzww+uXr8PhC3egTP7AAhSFgkwYPBOZ6cM+SNCWLWtAYverHhUjHtDZ13265xtHSpeEhW9HPBjE09MaCBrzGS8mv7iUqHtYutzv56tZdCJgOGbb9Gmbx9YkB0TJzfMwrKotmO/bD3GmbTpFWtgZV2EnCbaOmo6j9UDrGdQ7ehlvjwAzaKweNjwk3DRgOFY/VjX9w4DY0VY9Jr0ijUAAKvh8At+6WzwMnCLQaTn02y3vJK5lt+3tgAZr6Z/+CXjsgWSCEom8pSLzXI74POYOs680FquaW0cgGhRWDwACCRhwNh6d6bBYBWFpxQIUhaho8FfCVuZJxMN9JRrWrn/pn8T+Gj0dxmI5ssDdr2zf7fg4agVy51HVqRHCWEZ9G+/d4uBgXBB+ni1tITzhTAZfFj9tZy+boMwiupzBTm+yWJ4cnaMwDQwW92LTgSSMMBsuwoANpMZCBPEA+CWivwNSPVmnVWQUqJKwc0OP5eKLPax3BPAeoFn/24BxNGsHrlElj1wvvcvA4jNzS6zC9mK7UvLnKJmHTQBMVHPej+PI0P9EKl/s2gF+5bzXfb4+xBO7XU9hIuyxzalixfIwdyeeX93iJmOJyNaoFSnxTplwtRxrmn2mc/AaL1z2VJz5oWexY0JRY0yALAaDn99v2iNa1fbsf8wp6wJG/wP3sqOd0FRQkUjAKclPha8sezX99hrohy5+NXitetK1h4pAe71/LnmbnFJlDf9Pnrt+Pfbs7eyHdmQyHnX1tPRB7IdUW8uYO0uJm6PpVwvKz5ddiB7a23CVtcu/mK81IefL41/Gm5tXuFOjRR9XbQ7h/AZKlrgDTsSKtbAEVn2A0H+Z6oUs+smR//36AQ10oovlZKLrS+O2tGd8Wr6i0t99xJmxb67c0HvW60kpkENZdDxCLfh0X9NBDAvYqRAz4sQOcx5wmeM5Z8bBUvT332Vb0oXK19cKtR/7nvkpJkxQaj6JT0bE9zQanFsHGay+03gE6Mgerf90RcWR0CcmCiBzaCTFfvuzngBKINOEEOySBAEwYOMaIIgCB6Uhpbwl8stF6Z7CjOIxRmzyfwi3EKySAQA0gIW+gsxN5hlsjj42IJ79+7du+dbiCJkQmPdufPPCfUjCGJ2Q75FgiAIHiSLBEEQPEgWCYIgeMwy32LQElfwykY1V67Fqj34Zr3O3yu6ppgM5H51AEDmn361OWHoYG7bOU9nZm2pyA3rqn19/A+UVVq1WhagDz7TkeZXq2QwNpZ2Yo9GI4PhVOOxo1MwItN5uKWpzd9rSUoznlEK73S1HPpGurFIEWLVfbyr38S2Zf7pV5sjup4rnPn/hN6vFkNkaU9mrnpSLZ9YAIPwi77618v37Crf0+A2vfhEYBOsldcYAl8s8OWfbV4G7QeeNZFwA2O2Ata7RsDoXarIGYXJxAC4a2LQxtwd0Xbut136xzI/rFNMx8R8wuvVoiQphgr+EZ4pTDuwbqH+qw/ergvgRZurdwVr7gbGHLC/hGNhPFbaOFnXvsWYXN7pyveHH9iSWfGyrvyNyRoxEHi5WmSLW3UM0LO7xLiEbX8+Ufz9uZn9pZ8tsCuvWQtjdmOI1LXVXbDI1/2scOrn4wNerRYF8sfDYbqivy1YMNnzmZFkbanI5ZJV891bOSWVefbMiRang0xRuLtY0Vdbh4LNStYfaGgorz5l76UoeNl+HIBFe+iNuj53TYYTu2q8XCO5zJA/1kRx9Tzyk1kI8j9TpYx4xjzU/qJwkUJs0X7gznk0xr0CALNR52x13mFF4e5itetIXt0QgfxYamRv+yUkp6aw9o2pO++SY8ki3JtqPw4w/e35eoY9uGi4uzcyOUUApr+9DkmbYoW8jhHJDckS7jXvgp5YtEmxafG9r3cMNXnZgWna1cide7TznRFexfWqbTnO9D58tyPrIhzRJM2vVskMne9UOpNeJO3RaEJZl59rF2Njaecl3kBoLL2WaD/hTlfLoWqHTPPGYqfNuSadc3b5IK6c+21XXktm5p/C6n47Itc960CfCR5kL2RRoEyIE9zsbryJkCA0o9l/KscPMq5gS4Fif72O+9FCe7C8XsedVlwV6vzdipXFmw0ndpU3s5qVV5J1im3KKt2shPbQHocUOsgpqcyTGRrK3zgFsL2qdks9f0XiCl7ZqDaf3MOamYqClzdXlMIfZbSngNQMXgWb8kdV8T6bI5LfxBV3dfbMXB4lhnV4lPns4V7JV1eGddXuqtGxn7qwQPt6vQ7Q1b25p453BW8RpqSmDnQ35d1g5Sy5JqKp5AYAbE9KQndTHqvxEckNyak1DNckjE0O6256T5i6KTKpkOnP645sSI7dKzCV2ZAvT90UaztxuultgNXQhiRflDFQpMVuzJGOEYERrqpaeKW08RgANu6Rk7HK0NLUZjzTxTyjXJgEo13ypIkyGE6xYRDOfJaUZjyjHH1NqaZa2Hm48Vgbe4JqVRobk+FJLdvXp3CN7vL3mXkRLnWGZxyejejwuFiBrX9gyr8DMwJFYYFabNUedCxS+ur3szKVpVGLLNp6u2b11dd1WSD7cY6jq3Np03zZAIRKWUezQjofuD08ShMRV5Apg/6kQ86a9580QKRIjfMwxZzVarHhxH77BHX1LXrIFvtRjWSHLEVk66izp8WtHzyqtSFGshJgs0Nae81c0z7TIDDfxYKQR4jxfd8oVfR0r1wWj80NXRZxnNpfp/xANyd2uDE8AIQLuXSMb19qL3Ose/lNsPWdYLsI0Nvv+nWX5MYKB7q73+beMmV9Jkgit/s5xQkgeyRkTFcj07TLudYzfXPtDoRhMsdraWop9zElpQoZjFe8Cm07Y9OuF0Sa8BHA8J1x9Fjeor9hwWNxo+xoNq447UtFeF4tSjISJbaBtq4gdSpGhYlg6dKO/ndSSOfDqmt3UTfdRZ1FqYiMA0ZLngu6+ha9MjevojKPbz5DFiGG4Zyrjdj8N/3q3DDZ+BdURIYCotyqilzXoxapApjYtyt+wTxYeVVrrv71plUdLikA6u/fsCJ6UVg8bFcB7JBEw9bxV8eJYZHhwOga1z7dK53xNpQR8onO3hMC+bHUONeUtU7vHWM7BuQDgG3YBjgsI4EgHBAmr2rgXYiJFABj/yp++PQfEp942Dnsmn3hawDA9s1Huk+/meDkj+o60zJURRpVkbtdO3z7GgAXCG7rb89RaOKkEvSbIEyOE97pcjGWJ0Abc7cIsse58tuSJxaGwNg+uVuIpprxZTFEFieBqWMWVoWewTTvL2/mrMKNlWpAf3LPfj/DrD54If3DZjIDMTJHLZrBr1uP1WMn12oeHq2JvsKupv2+jFtYTXR6BiU12cnh3nV1Lj+94x+f/o7Liuuzb3EcOG9d0h6NJkezLcfF37detS1H6nybFruxyLnivvSdUZOzMDmtvwnSx0TG9mo/IzmM2QqZTLWtmnvbeXgCOmu5M4OLQo0riwJ5hAAQpGSuSnEejMvOjIOt77R29tf/88yQ2Qp5aNTotYvOeBtKRWocdI5oyVKF2K117B7WcaYo3F2sTshCczMMNyxQL87CKYe+Zf1YDovWw/YM3fAtzkIP0PLq6vX7UIenFAxetS8Y438SLsJ9Uz1QEJ0eM15BLv0NC5bFFULHs6N9ulfyUDGsusn5xQjEQjAd/T76g2y2m6ytfWOmxIUvVTZeYsWRWwNCIhECY+vdUV1nWsZjTwglWAg/l4oA1itUIn58xlfkEWLcvDmDt7WO61u0dWmbvjjn/O/0gA22vtPnmr4ICk0EoKs7b4As95UC+5/euIIt7Ovmv+khVhfYG+IKCpViS1ejj4GOqDARLLeGAKBPq7NCvrrU7nHL2rJaBkPL6MjMCE6d1FpE6s0lY3sTs0qrKiqrKkpzxjyDxz7TIAQphdFc1daC6PVqgVVrsJeyEUSM7UY6d37IgoWLXx5x2Pt7lVWaJ4P+vLfepZySyqqKyqpxPjsPm4WBMIyzjiU12ckx45/PYTrRzwhjU2sivBtlihBKQ527Ak0mBhBK0wBwS0X+QxdMdx8Tosx4RonvvwmIuNvHmhCKxY/BcmN0vCWu4BVfvqiTCD3854Hm6l2Gglc2FlexkTqr9uCbXHBgf/lQ4e7izRVcgNRLW9h1nwp40QZd3Zt7hksq8yoq8+xNuxz6wD79xqFmB+VG7Kt//RBe2ejqXuTvB5LOdzMP3j4b0Zr0ijWAlS1AaD6o6cz/TOVqKXOPBtYPHv1JeBF7soMBQGV/Xderez5RnZ2W+QbvEZdx7tWQ2Qq50n57YXEbox8DRWSo55NcsOnr+iM32b2EA93tHXGp3pTjPqZvB1I3uboXvd+j0/ue7iWfZjkm7HN1zveu226OdjY+rtEUaVRFYK3asCKVa19Ttc5QrZIZdLx4MU9AhZpqjWbkRhx38Mbi8NzLQeaflHJcaxi5OwdAn9EMiCHj2UzTwiyr5RIbGzGBfIsTg/ItjmJHQsWaeTwjekdCxZrPc0Jd0tAWph3Ykmj+6oPA7ujmtoJ6eHR62rnccmGmZuSV5lerEIjHqyWlGc8oGVcj2pc9OuN/Pdh9uwHwtvsJZdAhvCZ+wTyPR+yPMTxfMdKU9pWsUqfvIkujFll0F2e2Js5ghKuqVDJDZ0BSTkhDhe6OMEYv9i0qKraM9xBUVp5SDKu2Ydof9KTV4pjQatENrk+/AADMjZrP945aInmfQWc8XBwO/M1MM5YZt1p0mMn8B138Q7iqKkPFK+rrkiZnHMbJoGN/omnK9lSMD8nimJAsesmM04Lpg27F3ICMaIIgCB4kiwRBEDxm2Qad6O+vP3jw4MGDBz71+uuPRJ5PIgiCAECrRYIgiBHMstUiMTOhsvHEXIJkkfAXir0Sc4zgkcWMV9NfXCoEmM63Wt+aAVujCIKYoXjctxgiS8vmF7cyXWlq8T+B1MT46Q8e+BdyyXg1/cWlzL//gsv6RBAEMRKvVotzKI1Yy++vrvlSmVQM1E73VAiCmJlQJJogCIIHySJBEAQP7wqixmVncpWWptOxSBAEMQX8S4T00XFP+M+7Qz2G77n/bKInEpNiYOy7+19TNL8RyH/wf1h86vX3h37ofMNEpsX9RPnP4WO3PZQDIAgiOPHNiL7Z3XETgghJiOdTZy6fbjv5XKP4xS9Xf/iO1PPZBEEEGxPZtygQzwdmbWBauPOTdNVw13O/6JrumRAEMSPxMeQiCHkYuDk8g0sZekQ4Xwh9V6AychIEMefwabUoT0yLFdj6e3ysKDk74PIDT38dCYIgphePsihPXJXiKDF+s/uLc3NSE8EVXBZBvrxA0TzDCykRBDGZeJRF/ZWm2Wwy+8Cpk9rMjWrxLSNpIkEENUG3nbt4gRzM7atuWnJWq8WwaE+SCU0QwU3wZdCB/vOTIzPocMXpeVXnCYIIUmZZ5T+/M+gQBEF4IOiMaIIgiPEhWSQIguBBskgQBMGDZJEgCIIHySJBEAQPkkWCIAgeJIsEQRA8gmc79ySxI6FiTRishsO/HHT36MxUsnxRbUmCkHtz7aviix9NwyQW7K1dFgurtub03vNTNWax8sOn4FLNUbjzk/T5jSfLJ1jFTFrxpVIOoK/ruW2UaSko8VYWw5OfTJSwL20DbY0G26TNaMZREL27RHb769aD+6Z7JuOyYG9JAr49veFt6yQPJCo7kK02Xdjw2vVJHsg7smLffUqq//ykS4Vb5q1G44dPra7ABJRRuPMTpZwEMcjxRhbliatSwk0d54IlZ4RP7OspnxFyuSEqFte+mnRN9Mj1suLjUzictGJnPC62jpS/2q53ZekvPqV8utbHguBZ0kVCpvMz0sTgxqNvMUSWlhJu6jjXTZo4k1nxqHi6pzANPP2OUs5c/fD3zOimlt93dTLSn1NdCmICeFotCuQRAtvAt3NDEwuid5fIuMejR3gDWRchh7lR03MGiP+jqkgtYA+J1qRXrOG18roM9JS/YHZcLP6PqqJFNw/XYb19uEFXG5w31qjJPBFe5DdDWwAAIABJREFU/myU+N7Qe7+72evn512xPXvrEovTybhh6ZFcMef127D0SC6+Kh5Krl0WCwBgvj1d7LrY3LD0SO5CuDa5+i5jlh2xL9D6TxwvOwK7V5HFjWfz2dfWrosB74LgeuHE8e7F9tZ7PX/+t96zXn0+aVIc9J/3t7hvZU3p+J1ZxpGZQQhifDzJolAkAGMTZmSm2T2Lfae1+tlYyGVHQsWaeR01rcfqAWDl++lFn4ETo4Lo3Ummck0PAECQ/5lK81n00C8Hr77UWY6xfYuc+SzI/0yVMno4kayoxNyoaT0DrHw/XbMmYeU+p5jaVZLt60+4hhdmEa2rXbsOwGiNc8/CdbVibc3xDedZAV1WtpyLk6zYnr11iciud1ixfWnZ8ot7z/cWn+8d27fImc8rtmdvXTLyZpQdyFaj58/FvWe5OWcfec15hdjctdJvT28o5pS3ePu1s954A4oXyMF0jnPnaq/rn1LOjwdIFgmf8CCLAoEQECRGdpxragEAgVKdlq3G7FNGQf5Pw6zaTlYTAZxpMKSXhKcUDF6tB+oH36x3nGnr6LWlqIVRgH+RZfuiEjhzyayJmScpAOoRv2AeYL68b+yxvrlZ8Y33lbg5qRq1MPQKZ7z4bOtQ8ZKE+XLgPLB8UfESEfPtaVYTAZx9+6J3y7cx2JCgftiqrbGvAc/31qZHbV0S9Syus7N1ivj5a9/9JkEdIgI8y2KGTAjmeut4ksfcZqBSSgFvfYUZ2QsEHq5JBAHehFxMVxyORVvXgCk2cYFcoO+aXbHoeREiiNSqikbe0QgZ92Ll++maGNeW+5M0j6vX7wNhi3fgzD4AgpRFAgwYzkzSYBNE/ogQVm1rwKI3Kx4V497QWZf9Omdbh4qXREUvB/zYxBMTKvR8ktew6ThtF1uf+7UbTyURXPi8b/GexQaJ6GFgdskiAFi1nW++5GbaK99P18TYOmq4tWT8H1VF6kmbhIGxIiza4am0Gg67OCUJHxi4xSDS82m2W17JXMvvW1uAjFfTP/yScdkCSQQlHiLRNtOwDUKBwHnkYbEANuu9yZ1V4Ll/wwpR+Dx3TQJJGDBgOFbvrjHQrMyTiQZ6yjWt3H/Tvwl8NPq7DETz5QG73tm/W/Bw1IrlziMr0qOEsAz6t9+7xcBAuCA9a5xThPOFMBl8WP21nL5ugzBqvGsSQYCnDTo2/Q2bIGaJkhNGSUaiBDf7ZpkFDcB27D/MiEnY/UfB6CaTGQgTxAPgR5856m23geiksFEdJ4p9LPc8EV6+T/nHP4Qv8n+gs3+3AOJoVo9cIsseON/7lwHE5maX2YVsxfalZU5Rsw6agJioZ72fx5GhfojUv1m0gn3L+S57/H0Ip/a6HsJF2WOb0mPX7SGI8fBoRN8xtJ1GWrZ6Fbv3wjbQ9sXsfMRlX085EirWuLgX7dtizrzQs7gxoahRxh38+n7RGtee5oM1ht0lCfaObrbvQMS2Oi3xseCNxeG510Q5cvGrxWvXlaw9UgLc6/lzzd3ikihv+n302vHvt2dvZTuyIZHzrq2now9kO6LeXMDaXUzcHku5XlZ8uuxA9tbahK2uXfzFeKkPP18a/zTc2rzCnRop+rpodw7hM1TLZUoR5H+mSjG7bnL0f49OUCOt+FIpudj64qgd3Rmvpr+41HcvYVbsuzsX9L7VSmIa1FAGnSllXsRIgZ4XIQLMNtLEiWEs/9woWJr+7qt8U7pY+eJSof5z3yMnzYwJQtUv6dmY4IZWi1OM65M2AMaOjxNeE9gMOlmx7+6MF4Ay6AQxJIsEQRA8yIgmCILgQbJIEATBY5Zl5x58bMG9e/fu3fPNFxcyobHu3PnnhPoFI5dbLkz3FKaZxRmzyRlFjM8sk0VixhLMukB/FeYYZEQTBEHwIFkkCILgQUb07CCu4JWNaq4ugVV78M16nb9XdM2lNhjoAl6Zf/rV5oShg7lt5zydmbWlIjesq/b18T9QVmnValmAPvhMR5pfrZLB2FjaiT0ajQyGU43Hjk7BiEzn4ZamNn+vJSnNeEYpvNPVcugb6cYiRYhV9/GufhPblvmnX22O6HqucOb/E3pKQyvXqONGZVew9WvbZl+2iFlNX/3r5fUAckoq80IDcsUzL7SeAbe9PCAXdPLyzzYvg3a/Z00k3MCYrZDhrhHALQaygCSVFK6qylDd6nynctK3p5tMDCC8a2LQxtwt4kc7z/22K68l88M6zHhl9CCLNn3jOV4dlxBZWnYMc4c0kRiDwrQD6xbqv/rg7boAXrS5elewPqTMmA2TPYTxWGmj57Mmxi3G5PJOV74//MCWzIqXdeVvTNaIgcBH36IkKUZgG+ibGxWviMATtv35RPH352b2l362YDLN6kThjNlNgve6troLFvm6nxVO/Xx8wCffYogsTgJTx+xMLOYHWVsqcrmsrHz3Vk5JZZ7dArU4HWSKwt3Fir7aOhRsVrL+QENDefUpey9Fwcv24wAs2kNv1PW5azKc2FXj5RrJZYb8sSaKq+eR/9S2IP8zVQr/YcrBrwH2a164SCG2aD9wZyKNca8AwGzUOVudd1hRuLtY7TqSVzdEID+WGtnbfgnJqSms+8fUnXfJsWQR7k21HweY/vZ8PcMeXDTc3RuZnCIA099eh6RNsUJex4jkhmSuyhv/gp5YtEmxafG9r3cMNXnZgWna1cide7TznRFexbTYjUUKzjJ1ddsBdhchB+eRdD1fpNpWzW/ldTE2lnZeclxsvWpbDhpLryXaT7jT1XKo2iHTvLHYaXOuSeecXT6IK6wpnfmnsLrfjshLzzrQZ4IH2RdZlCTFCHAzyJaK7D+V4wcZV7ClQLG/Xsf9aKE9WF6v404rrgp1/m7FyuLNhhO7yptZzcoryTrFNmWVblZCe2iPQwod5JRU5skMDeVvnALYXlW7pZ6/InEFr2xUm0/uYc1MRcHLmytK4Y8y2nOdaexlEUtUFe+zydD4TS5VDJ8HAGQujxLDOjzKfPZwr+SrK8O6anfV6NhPXVigfb1eB+jq3txTx7uCtwhTUlMHupvybrByllwT0VRyAwC2JyWhuymP1fiI5Ibk1BqGaxLGJod1N70nTN0UmVTI9Od1RzYkx+4VmMpsyJenboq1nTjd9DbAamhDki/KGCjWq7blCDsPN7KBkaQ9mmeqYFdG4aqqhVdKG48BYOMeORmrDC1Nbf2H2vrH9i1y5rOkNOMZ5ejxpJpqYefhxmNt7AmqVWlsTEaaX62SGbirsX19CtfoLn+fmRcRBszYch0+GNHhkRLY+gem/MswnSgKC9Riq/agY5HSV7+flaksjVpk0dbbNauvvq7LAtmPcxxdnUub5ssGIFSqYK8onQ/cHh6liYgryJRBf9IhZ837TxogUqTGeZhizmq12HBiv32CuvoWPWSL/Ui7v0OWIrJ11NnzP9YPHtXaECNZCbBp0Ky9Zq5pn2kQmL/AGZKTR4jxfd8oVfR0r1wWj80NXRZxnFox8ekDAAa6ObHDjeEBIFzIBS7evtRe5lj38ptg6zvBdhGg13URBklurHCgu/tt7i1T1meCJHK7n1P0GeGqNOmdrk6H+lw6pbsjWpicxs2qaZdzrWf65todCMP8DaU5Y9O8C6YJHwEM3xknPpb+hgWPxY2yo/vqXy/fs2val4rwYbUoUMZIcLM7yALQUWEiWLq0o/+dFNL5sOraXdRNd1FnUSoi44DRkueCrr5Fr8zNq6jM45vPkEWIYTjnaiM2/02/OjdMNv4FFZGhgCi3qiLX9ahFqgAm9u2KXzAP1psdLtnCr/71plUdLikA6u/fsCJ6UVg8bFcB7JBEw9bxV8dXIiwyHBhdzNWne6Uz3oYyQj7R2XtCID+WGuca3HV67xjbMSAfAGzDNsAh9gJBOCBMXtXAuxATKRivzNsPn/5D4hMPO4ddsy98DQDYvvlI9+k3E5q6MEyEEGWGwxBmCZMBrFCuV23L4eWJvDuhYTzTxtwtguxxrs6s5ImFITC2T+4WoqnGW1kMj4sV2Pp7gmqpOEk07y9v5qzCjZVqQH9yz34/w6w+eCH9w2YyAzEyR9GFwa9bXcotmIe9L3A9Fuxq2u/LuIXVRKdnUFKTnRzuXVfn8tM7/vHp77j0jz77FseD7+BzYb1qW47U2ZoWu7HI3xX32DBmK2Qyh6eS6Tzs4pT0FsudGeyN804WBcoYCWx9+uBaKgIYMlshD40avXbRGW9DqUiNg84RLVmqELu1jt3DOs4UhbuL1QlZaG6G4YYF6sVZOOXQt6wfy2HRetieoRu+xVnoAVpeXb1+H+rwlILBq3a9i/9JuAj3TfVAQXR6zHiVZ/Q3LFgWVwgdz4726V7JQ8Ww6ibnFyMQC8F09Pv4t91mu8na2jemNy7MmK2QhQpdF7gOJBIhYGx3q5gBZ71CJeLHZ3xFHiHGzZszeFurV77F8LhYAUwD+juTPZsZh67uvAGy3FcK7H964wq2sK+b/6aHWF1gb4grKFSKLV2NPgY6osJEsNwaAoA+rc4K+epSu8cta8tqGQwtoyMzIzh1UmsRqTeXjO1NzCqtqqisqijNGfMMHvtMgxCkFEZz5QkLoterBVat4QzXLIgY24107vyQBQsXvzzisPf3Kqs0Twb9eW+9SzkllVUVlVXjfHYeNgsDYZi9iGVNdnLM+OdzmE70M8LY1JoI70aZLJimNiNkqo2lbjZ4s5uopayf0TX6bO9rvAXIFiYFbDL2sSaEYvFjsNwYHW+JK3jFly/qJOLFapFbKl7y30CajTRX7zIUvLKxuIqN1Fm1B9/kggP7y4cKdxdvruACpF7awq77VMCLNujq3twzXFKZV1GZZ2/a5dAH9uk3DjU7KDdiX/3rh/DKRlf3In8/kHS+m3nw9tmI1qRXrHGUQjQf1HTmf6ZytZS5RwPrB4/+JLyIPdnBQE/5C/bXdb265xPV2WmZb/AecRnnXg2ZrZAr7bcXFrcx+jFQRPr2wI9NX9cfucnuJRzobu+IS/Wm7uwxfTuQusnVvej9Hp3e93Qv+TTLsTna+Q5U23Jc3IuOPTpHOxsf12iKNKoisFZtWJHKteulyhZpVYamWqMB4Hb7DoRs65h2uss0XMbi8NzLQeaflHJcaxi5OwdAn9EMiCHj2UzTwiwrWhAbGzGBfIsTg/ItjmJHQsWaeTwjmtujU/t8oT2xWGHagS2J5q8+COyObm4rqIdHp6eLyy0XgievmqQ04xkl42pE+7JHZ/yvB7tvNwDedj+hDDqE18QvmOfuiO2Gq/+Te4zh+YqRprSvZJU6fRdZGrXIors4IzUx2JCGjrTipaFCgDF6sW9RUbFlvIegsvKUYli1DdP+oCetFseEVotucH36BQBgbtT0nBm1XPI+g854uDgc+JuZZhpBtVrkNofzqleOeN5mDMbJoGN/omnK9lSMD8nimJAsek+Q6cJIgvzjzz3IiCYIguBBskgQBMGDZJEgCILHLCtaEP399QcPHjx48MCnXn/9kcjzSQRBEABotUgQBDECkkWCIAges8yIJmYsVEKemDMEjyxmvJr+4lIhwHS+1frWDNgxOqegXXvEXMKb7dwhsrTsGHtWTlvfae30pdL56Q8e+BdyyXg1/cWlzL//gkuGRxAEMZJ/iZA+Ou4JbAXUjnPtbYbvewzGHy1col74z+vX7/znFE2Qj/wH/4fFp15/f+iH9peG5n888es46cN9TdqAT44giDmBp5CLQB7hWgHVpr9hg0DsLlMVQRDEnMCbSLRA6EyZMV8ogM0ySUnlCYIgph9PsmjrGjAhPPlJtTwECJGlpYQHZ5pugiCCBo++Rdwz9hiY8PiEpJjYx0Jud5xr7743NVNzh9++RYCJTIv7ifKfw8due6iSQhBEcOI5Eh2e/GSixDbQ1miwyRNXpYSDfT010xuJ35FojmLlh09J0df13Daj2x4EQQQvnvYtSjLsmghAf6XptiwtO2aJ8mbbrC0YLdz5SbpquOu5X3RN90wIgpiRePAtCgRCgLE5JfCObXqrQvqPcL4Q+i5aJBIEMQYeZNFmGrZBkpgs596zVQCvz8WC0YrC3ZVVFZVbvCyuSRDEXMWTEW3r0rZBnZaSuSqFOzCtT7lMIrrhW4AI8uUFiuaZWV+OIIgpwYtnom1d2qZg8MOdOqnN3KgW3zKSJhJEUBN0icWKF8jB3L7qpiVntVoMi/YkpZEgiOAm+DLoQP/5yZEZdLJKq1bLAENDefWpaZkcQRAzh1lWEDVQ+xYJgiDGIuiMaIIgiPEhWSQIguBBskgQBMGDZJEgCIIHySJBEAQPkkWCIAgewbNvcZKJ/6OqSH2/UdNzxpuzC6J3l8hEMHt7/mSyYG/tsljutVVbc3rv+WmYxLOvrV0XA+bb08VvW6doyGLlh0/BtdhZxqvpL4ZenWiuOWnFl0o5QNnq5gLeyKJr5T/TlaaWm5M6o+mhIHp3iez2160H9033TKYWUdmBZbEDFza8dn2yR1qxPXvrEstXxRc/muyRvCEr9t2npPrPT7oWgGz5/dU1Xyo/fGcCuibc+YlSToI4Z/Aoi/LEVSkP950+p78DNiXtqow5qoxTSf3gm/WD0z0JAMsXPv6wVdsw6ZrokY9eOz6Fcimt2BmPi63ltSOOG8vfuvruTmVF8clRTeOSJV0kZDo/I02cK3jKtyh/PNzW32NPmXOzu+MmJDHykMmfGDEVyB8Rej5prvH0O0o5c/XD37vLHNrc/+FFRv6U8ukpnxUxg/CwWnxYLOAfuM3YEC6eD8zG3GI7EirWhDneDX7denAf6xPkPqRoTXrFGvYl5/Vb+X66Jsxw+JeDbG6JkQ5EzkXo4L7jILSdb77kyEopyP9MlWLuKX/BzOtidV6Zu/iim4frsN5+wiDPqA/b3JgQzfs8to6azmP17OsfPv2HxCcetn3zke7TbyZ8g1g2LD2SK3Y6GZcvqi1JMJ44XnaEbcJXxUPJdnfkSG/ghqVHcheC1yQqO5Ctfpg9JlpXu3Yd+9JuubNeRZZ+dhQXXFtdxhKVHch+XHe6Fsu2LmHv1TWvzXNpUhz0n/e3jNHMmtLZrwo/daubRDDga8hl9mbnLojevSZscJT38OpLneWYkG9xR0LFmrDBr1vf3AdwigkAqB9szZNpFoXFw8ZJXkGYQmTrqDOzraz5vPL9dE3YqGuKZEUl5kZNK6fIaxJW7mMlOGxzY0L0QE/5C2bHWC6a6DOuYRaoS9YeKQHglKpxWbiuVqytOb7hPOsuXFa2nBPQFduzty4ROaRtxfalZcsv7j1v3ftvxzG2b5Ezn5cvqi1JGHEzyg5kq9Hz5+Les9wJ2Udec85QuCR768CFDcXX2Y+z7rUFH3njIS1eIAfT6S6Fkh3jpT78PFQIzNavOuEvHozom8MmCGJjJPb3koxEyXjnz2BkQhFsNwJW7U+Q/9MwDPS4ldEzl8wQyVbv4N6uzJOJrDc7vJIwZ2z6zCUzME9SAAAoEMwHBi+Z2ZOu/vWmFYIImWvHf3z6u66Xdni7VLxeVnx8Q/HxDSeuAVZtzfEN7FuvAi/OaPXZ1iEGovls6vbli4qXiJhvTzuWe2ffvuhXUHtDgvphq/b/6T3Lvj3fW/utFTFRzzpOcIr49e4BQCJe4cVVM2RCMNdbx80eN3CLQdwC7+3ojOwFAk/XJGYTnvYtmlrOdZvCk5/MXPVk5qonMyOHrpimZF6BZ5+hwypIKUmvaEzfvMPz6Z6YFyFy6pS7sRCdxK4GwxbHYPA/Bsdbn3ik3nYbjgsi/ifhIpgvz6ygufwRIazftQZse82KR8W4N3TWRVjPtg4xEEcv9+uyMaGB9KZmvJr+4Zern0PXc78e0yonZh9eGNGmlnNNjjchsjTYrt+exBlNGrZjv2w9xhmn6RVrYOW5/wI8VkevLUUtWQnzmR2SaKvhsL8Sdv+GFdExCRWN9uvXTP+Gx1nJwC0GkV6cx1gGvDir5fetLZw4Mq5bIInZjY9PuUiSYgSmgVldy+XMC63lmtbGAYgWhcX7d6n5C5wBqahwXnDq6kuGQYQt3oGVSWH+LhUB7JCliMyNmtZy7r+JexUnDf1dp0EdCM7+3YKHo1a4rA1XpEcJYRn0b7d5i4GBcEH6uIXMYkKFGGa8X/21nL5ugzCKiqPNGXyQRYFck5ksudk9FzYtCiRhgNnmVCu+lepg6KYNImEUAPBi1oD58gBEatlKAOwKNGZEV/PlAUSvSdfEBMratfsZ3fPDp/+g/OM+xdNP+D+Qq8AtX1RbkuCV2Xm+9y8DiM3NLrML2YrtS8tcRO3s3y3AwuQNXk/jyFA/ROrfLOI8hpzvssff7Y211/UQLsoe5zNJk+Jgu0XxliDGq+3c4exLW7+2qWu2lkLlixpgj+raMR+sMewucVipXOjj6ku9HZ+pNI3pGrbL1xL7Dh6ceaFTYm+yajvLL8kcTdwJDYb0Ehm0Bp61y9skJCtqlGHkRhx37OtpTErXlKSnlDiPTZoT4HxvbXrU1ty1R3IBXPuq+EJyrVcZ3D967fj327O32uPazLeni11Xdkcu/vnRbPtlHQET1+07iGVb7/X8+d96z+J6WfHpsgPZW2sTtgJwt31nQhgv9eHnS+OfhnubN+PVeDmM/067c4IZKloweRRE7y4J1/mxjcbB6Aeu/d+jE8xIK75USi62vjha+7Ji390Zb/rc16dcYt/duaD3rdaRNYKIWQpl0JkswjaXyKDtDYhsjXBc2o/cN5EmTghj+edGwdL0d18dYUpLK3bGC/q6fNNEAM2MCULVL6UBmyAxvdBqMeDYzeSAGrmC/M9UKa6fgv+EDOE7gc2gkxX77s54ASiDzpyAZJEgCIIH5VskJp3LLRemewqTzuKM2bS8IMaHZJGYCua2agSD7gcVFHIhCILgMctWi4OPLbh37969e75FMiaWHvLOnX9OqB9BELMbWi0SBEHwIFkkCILgQbJIEATBY5b5FoOWuIJXNqrF7Gur9uCb9Tp/r+ia3sLzQ9k+kvmnX21OGDqY23bO05lZWypyw7pqXx//A2WVVq2WBeiDz3Sk+dUqGYyNpZ3Yo9HIYDjVeOzolIycFruxSHHX2+GEq6oyVKIATS8tdmORIsSq+3iXMbkqQyViOg+3NLWxbYVpB7aEnMv4X3V+j+I1rrLIZoWwDbQ1GvghjfDkJ+1Jud20ElNAX/3r5fUAckoq80IDcsUzL7Segb3yTGB5+Webl0G737MmEm5gzFbIcNcI4BYDmfdZc4WrqjJUtzrfqZyFD9m0MXeLEHKLMYEx3gJ4j1/UtZ1b+3xey88wdcrIyWJ48pOJEtNAny08buQZ4clPJgq53DkCuUadpgEpIzEmhWkH1i3Uf/XB24H8CjdX7wrWLAyMOWCFNgIL07SrscnzaRO8uLHN5V1d4VeRJ9bl1SnqCqfGWPhvAARyTSI6zrmt/izJSJTYBr7l8onZ9O0DNkFMXOCSjRJzi7DtzyeKvz9X/sZ0T2QuYDIFY3Yzo7tUl+a3P7hieSyz4uWpmcNDAGz6xrHMHYFACNvwTWdlT3mEABBEhUM/B5LRekvWlopc7i8B372VU1KZZ7dALU4HmaJwd7Gir7YOBZuVrD/Q0FBefcreS1Hwsv04AIv20Bt1fe6aDCd21Xi5RnKZIX+sieLqebSOLu7Kf8bc6ZosXKQQW7QfuPuTPsa9AgCzUedsdd5hReHuYrXrSF7dEIH8WGpkb/slJKemsHmHTN15lxwViIR7U+3HAaa/PV/PsAcXDXf3RianCMD0t9chaVOskNcxIrkh2V7djXdBTyzapNi0+N7XO4a8XVm5rMKOdr4zwm23XrUtx5moh/PrsY459pBIta2a37petS1H6HTVjXQgci5CB3cBzr9p4NnjSXs0mlDdx7v6Tbwurk5A9uILvz/cifX2E3gXYd2mvA9r7248VsqlOjVVt7zj5rbUtZ1bm5iXnZb5xgjnDOt2D6zf2Ys60cwd7ichychMxpVuU2KyUCDAzeCwo9mb7vhBxhVsKVDsr9dxP1poD5bX67jTiqtCnb9bsbJ4s+HErvJmVrPySrJOsU1ZpZuV0B7a45BCBzkllXkyQ0P5G6cAtlfVbqnnf+y4glc2qs0n97BmpqLg5c0VpfBHGQX5n6lSYDisGbwK1vmoqnifzdrLb7KXhHWEazKXR4lhHXZjPu+uzBv7XslXV4Z11e6q0bGfurBA+3q9DtDVvbnHfin2bnuLMCU1daC7Ke8GK2fJNRFNJTcAYHtSErqb8tivbkRyQ3JqDcM1CWOTw7qb3hOmbopMKmT687ojG5Jj9wpMZTbky1M3xdpOnG56G2A1tCHJF2UMFGmxG3OkbkIcbf2H2von5Fu0y98uI3f9IgUAwHimi3lGuTAJxkv2MxNlMJzqNwFO4V6v2pYz2vUpVBVlGE41vsMpsip/PTthntRKSjOeUYInqR6p+/Za3roQOTD5PuvxN+iECOyfWiDXZMZZtW4N7TmMorBALbZqDzoWKX31+1mZytKoRRZtvV2z+urruiyQ/TjH0dW5tGm+bABCpewXTiGdD9weHqWJiCvIlEF/0iFnzftPGiBSpI5y9o4gZ7VabDix3z5BXX2LHrLFftQV2SFLEdk66uxZy+oHj2ptiJGsBNh6h9ZeM9e0zzTIL2gjjxDj+z53TsVx75XL4rG5ocsijlMrJj59AMBANyd2uDE8AIQLue/x25fayxx/zvlNsPWdYLsI0NvvKnmS3FjhQHf329xbpqzPBEnkdj+nOAFkj4QE1NUoKVXIYGx0J6Omb67dgTS1VOh65hXvIs5O4T56zQA8IhECQJrwEcDwndHl+sIw34J9+jsWLFw80o7uq3+9fM+uwG5RGH+1eMfGAGzUBR3n2vT244wtOJaKiAoTwdKlHX3HFdL5sOraXdRNd1FnUSoi44DRkueCrr5Fr8zNq6jM45vPkEWIYTjnaiM2/02/OjcUqfpoAAAJqklEQVRMNv4FFZGhgCi3qiLX9ahFqgAm9j2JXzAP/KrWV/9606oOlxQA9fdvWBG9KCwetqsAdkiiYev4q+O7EBYZDoz+u6kALnh9r3TG21BGyCc6e08I5MdS41xXOE4/FmM7BuQDgG3YBjjEXiAIB4TJqxp4F2IiBcDYv4IfPv2HxCcedrwVrNkXvgYAbN985G0t79Ec1XWmZaiKNKqiwGyLkYYKYdBdctvW1t+eo9DESSXoN0GYHCe809Xp/kwvaWPuFkH2uBQwApA8sTAExvap2XjkOx6M6HsWG+JSYvpOn7NX+xMIhK7fJcJnmveXN3NW4cZKNaA/uWe/n2FWH7yQ/mEzmYEYrgQNgMGvW13Sj5uH/bcl2NW035dxC6uJTs+gpCY7Ody7rs7lp3f849PfcfltffYtjgNnvSbt0WhyNNtycKer5VD1ZP0YL31n1OQsTE7rb4L0MZGx3d+BGLMVMpnD9cl0Hp6IzlrMes8n+Y0HWbTZGAA3TI4KqCHhCwQwfRcspvSQ2Qp5aNTotYvOeBtKRWocdI5oyVKF2K117B7WcaYo3F2sTshCczMMNyxQL87CKYe+Zf1YDovWg82kG77FWegBWl5dvX4f6vCUgsGrdr2L/0m4iC2QUBCdHmMbp4CM/oYFy+IKoePZ0TqA9QZ4c6/koWJYdZPz1ReIhWA6+n30CdpsN1lb+8ZMWQ1cqmy8xIojt5rzg1ChBOCuIHskhAu5AOAWp489IZRgIfxcKgJYr1CJjI2l/lxHHjKG5zrgeHr4z3RpwCaIWaJkTQqBPDVGYBvomwrBnhHo6s4bIMt9pcDu7Ior2MK+bv6bHmJ1gb0hrqBQKbZ0NfoY6IgKE8FyawgA+rQ6K+SrS+0et6wtq2UwtIyOzIzg1EmtRaTeXDK2NzGrtKqisqqiNGfMM3jsMw1CkFIYzRXRLoherxZYnfULBRFjO4TOnR9y5/0B4OW9yirNk0F/3ls/UU5JZVVFZdU4n52HzcJAGMZZx5Ka7OSRRWzdYzrRzwhjU2sivBtlihBKQ4FbjIsmMsZbgGxh0ogTDXedXjzXmDVw6TsjRIqV6wGMjHGzF+zuY0KUGc8o8f03AfmTIJSm+dG7cMlCWO6M0p64gld8+Xp7xUMAIFCq02IdvpSYtCdjAJg6znXrgTuGttNIy1avigUAmK4EWdSluXqXoeCVjcVVSgDs9hEuOLC/fKhwd/HmCi5A6qUt7LpPBbxog67uzT3DJZV5FZV59qZdDn1gn37jULODciP21b9+CK9sdHUv8vcDSee7mQdvn41oTXrFGkd9GPNBTWf+ZypXS5mLNdcPHv1JeBF7sgPX0rJ1vbrnE9VudlGU12rd36shsxVypf32wuI2Rj8GikjfHvix6ev6IzfZvYQD3e0dcamLvOh3TN8OpG5ydS96v0en9z3dSz7NckwkpRnPKF38ooaRQedLlS3SqgxNtUbDtrP+x7b+408sfCZHsy0HgLGxtDOxWsV1ONr5sSSDa7LqPi69ttLRBAAwVesM1SqZQcePF/P22bC+ztGTGcnRzsbHNRr2ZDu+OAEK0zIfg/6r0Y9O9RnNgBgynqXlJ7OslktsbMQE8i1ODMq3OIodCRVr5vGM6FF7dFCYdmBLovmrD1x2dF9uueBvdm5uK6iHR6eniwB8wBmKNL9ahUCEdySlGc8oGVcj2qc9OmHbT6xT3zz3nNunXNjdvgHw0TugDDqE18QvmOfuiO2Gq/+zrq3ugkW+7nm/H0jIKnX6LrI0apFFd3FGauLcRbiqSiUzdAYkUYU0dOQOR2mocORDfmNRWLdOLb7WMMaTf1l5SjGs2oYABh1ptTgmtFp0g+vTLwAAc6Om58yo0/gZdCa6mHJxOPA3M8005tpq0eGC9Gga+8DIx2lgZZ+Z8cjYGXTsz0EFfCcGyeKYkCwGirmmGqOY8x8w2CAjmiAIggfJIkEQBI9Zlp07+vvrDx48ePDggU+9/vojkeeTCIIgANBqkSAIYgSzbLVIzFIut1yY7ikQhLeQLBKTDkVpidlF8MhixqvpLy4VAkznW61vBWthEIIgPPMvEdJH7a/liauyE2JjYOy7+18jTguRpeUteTxRyPTcmNZMi/If/B8Wn3r9/aEfAobmwc8+6Rt+XLY2P+xHnwx3T9IMCYKY7XAhl/DkJzNXRTF9bjRPINdkrkrF9SlP0T4ptPz+qh7SpOLpngdBEDMWz5X/1AuGtU1UAZUgiGDBQ+U/mFrOzY1lIkEQhHfQvkWCIAgewSeLxkt9kGtiM6Z7HgRBzFCCTxbx6baTzzWKX/xy9YfvSD2fTRBEsBE8+xbtCHd+kq4a7nruF13TPROCIGYkwbdaFM4XQt8VqNyaBEHMOYJvtTgWXKbfQFaEIAhiNuKx8p88cVWKo8R4ePKTmQBs/dq2rrm2kVE3fAsQQb68QNE8MwspEQQxJTwEALYubdNYnjb9laYgqQp96qQ2c6NafMtImkgQQU3Q+RaLF8jB3L7qpiVntVoMi/YkmdAEEdwEj2/RnkEH+s9PjsygwxWn51WdJwgiSJlllf9++oMHVLSAIIhJJeiMaIIgiPEhWSQIguBBskgQBMFjloVc/uOfD+FfHsK/TPc8CIKYu9BqkSAIggfJIkEQBA+SRYIgCB6zzLcIACvN7Vv7xIDlgir1zX+d7tkQBDHXcN3OzWaFsA208Qta8RJJmK64rYQ19aw0t2/tMx5ftvaD6Z4JQRBzC48FUeWJabH3ur841/TFuabTAzZJYppSMOqkaeBM2P/6HvHJ1umeB0EQcw1PBVGhv9L0xRWu+N8dQ58JgsjwGaGLBEEQk4KngqhuEAiFwEzOtpi1pSJXTnkfCIKYGL5FogUCIWBjmEmaDEEQxPTjSyRaoEyIE8DUYZgZS8X/0R2Vv3b40ErRxjP8hub95ZQzkSCIieL9alGemBYrgOlK94xJ1v3BwsUFkZKtFy7XX/u/p3suBEHMGbxcLTr27syM3TkAgI27r760THCsYNna6Z4JQRBzCW9WiyGyNHf7Gaeb+Ihb+F78P6Z7GgRBzDE8rxbDk7NjBDNOE8eDjURbtIfeqOub7rkQBDHr8FQQVZKRKAEg4A6yzPCCqENmK+QisWKpAn1UxY8gCB/xVBDV1HKuaSrnEwh0decN6tWy6Z4GQRCzk9mbQcea8hgsN37kpkVRuFwGGM7V01KRIAjfmcUZdPB94uKRGXRySirzZIBVe7CcRJEgiAkxywqiEgRBTDaz14gmCIKYFEgWCYIgeMwy3+JD/zpvuqdAEMQch1aLBEEQPP5/LpDvu1ATp/cAAAAASUVORK5CYII=;" vertex="1" parent="1">
                    <mxGeometry x="170" y="-50" width="308.9" height="200" as="geometry"/>
                </mxCell>
                <mxCell id="17" value="" style="shape=image;verticalLabelPosition=bottom;labelBackgroundColor=#ffffff;verticalAlign=top;aspect=fixed;imageAspect=0;image=data:image/png,iVBORw0KGgoAAAANSUhEUgAAAbwAAAERCAIAAACPUIW4AAAACXBIWXMAABJ0AAASdAHeZh94AAAAEXRFWHRTb2Z0d2FyZQBTbmlwYXN0ZV0Xzt0AACAASURBVHic7J17XFNXuvcf0FbdOxG5JEAhpIRYcIgJqTYIWgkHM+Ac7WWAYwedFukYZUbf4+VYqWewF85QW96qZ6qHSqdo+1qmHuTYVs8UBx3AERBaDVCcSg1gCCgQiGKyo7Ve3j/2zg0C7J2Em6zvp59+dvZea6+VGH55LmuvxyNCtBAQCAQCQQ/P8Z4AAoFATCaQaCIQCAQDkGgiEAgEA5BoIhAIBAOQaCIQCAQDkGgiEAgEA6aP9wQmP3EbcxJ9GgvfLlYP10qQumutlA3a0uz8M6M+pVeuf7+iEwBaTi5c8cmoj4ZATCmYiqYXL1oegkFf05eXdaMyIYSrLNXXrehEcolAjBIMRBPjK6QCaG/VgYAzehN6VGktfju7eCwGWhtzg31LkI8UE4EYHWjHNDmx0oBuVXmZ1jSa00EgEIiJDW1LU1ddNaH8cVbWAblU9+2qN7ssp9a8uWJlyPUTGReOAAAE7C5cGGq+1HbqZNZRm2bw7apSdqEyHB90dRgSlLlJPOrYYB/E1PeorVeNqoPvUtdsuwy4hEAgJiWTNhFkPKc2SudHZC3q2n2ePBMgCgHiu+YjAACsrANBTRknswAAYMkW+aZEeZamwtwSIGThUaVRVXBy93ny6oI1R0mpHQph2o4MKagOZhergczqZOR5n9peUEle5i/L9Wks3F6gJvNCaakqUlLPFOy0pH0SlLlJ3m79DBAIxNgzaUUTzu29vKJw4VMxLDhvBABYFRQKRlWNEQAAjLt/d8HasqYzY374HD6ARTTBYpDCuWuGTfPZwYtsrw4iTiFlGVSHzEZia3FRo3C9+GcJUElqoo3hWVnaGLteIBWC2lmLMn6beHnQwJOG7y/nfHR35M4/LX3qhuGHkENOjo1AIEZg8oomQFdTO6wUBi6BK+cA1swLhPZvrbbkqgVHEwOH7Hr71lXL8dELq0byzYXcOWBU17Vaz6gvqA1iob8AoHVgY3XPTRD78QGcFc3y9xvLnej206GPGxbN9j7/wULZWSdHRiAQIzKpF7cfKW0mZgUtWQSkb972vTm+uWrB0cRA4ruKVRknV2WcXFXQTIzhrITcOWM4mpXH1r66cF5qCLzy7fd5xnGZAQIxFZjMlibA+es//Dr8qRgW8INCbzd/YDYYlzzBBrj+t71ukw51z00QC2UCUJvtSuECIRtudg8yMwGA780Go1rj/GguueePnf3Be9FTd9cCIA8dgRgNJrdokukgYWCWVyChbj5nPmsXplw015Ild57Kf2iWJUpTU+vepRJBaWK2obHYwbM9cZlJPNCcdiVF7qR7jkAgxgL6osmPiI/yNb/wFT2/GABMbaraxnFduEmmg6Qh109k2NiVRy+cmLdipXLFUSUAGFUF385Rurg/feX+7M60HRnrc6Tka83pnfupzHmn3gh8cUaemHxpUB3aWeTIAkUgEI8CHqjcxViRoMxNAusqpdFi7Y6W157yfu9VH+SeIxCjwaROBE10BKm7lHGW48U80DSPsmICwKEuDGa3Jr8y6gMhEFMTZGmOKsLU19eL2eSxjUc/yqzd0fLawhuAdjlCIEYBJJoIBALBAOSeIxAIBAOQaCIQCAQDkGgiEAgEAybr4vZnPe6RMOr1zQzWKM0HgUBMEZCliUAgEAyYrJYmAoFwL4H+dxdKDI/PeFhR5dWnf2y8pzNxQaKJQEx1eE/8uEl5bYWiz8MDAOD+A4//83rY3/4+Prt1TXyQaE5EOJmxq8V4f2P1oYvctelCL6P6s+1tOkdtqBfahn25PaMzDaIss+GSg4vc5HwJD3rKMhtgp0LBA+2ZspJjbp8CYnTx8/3pt+nX/+UF3bRpDy0np3k+3JvTkrhqflf34+M4twkLE9HExNLoUIx6obtcXt03GjNCAOh0BAB+S0dALXErHbwGt0iRrBZDw+Gy8tqxnx0JoTcCD271AMANAniu7iOFGGPYrPuvru565aXumTMeDL76+OMPF4qNJ8t8xn5iEx8muxxFh95u+lKlA7L6eUS0eLy3OJoy3CAGmJmRT3FB2zB+ijkYQq8d7ykg6DFzxoPVKT3Kl6/PZt8fptkMR2KKACaiqblcbtlYt1/bqgsR+ftiYEKqObqQBt0AcK43wI3xmI4jSLt4vGeBGJnp0x/+8p97f5dxjcv5afiW9+97VFShmKZjXIlpYjgOMOlE009UKoJTFd3z5KIQAAAg2uqSNZZ6GJwC83kAaG8qV/ZSJ6GpCUSiEID2pvLv/eMTObYd8d0yWRQVuSDq6+qy7D6Wp32z1wSxb3d+9O99V+hN8ljDPio+SJRvL6O5JTEnM3a14Ppn24ml+RJSZ/sbqw/lE9arlhioTZA0cqdCAQ37fgjcnMAlR2w4XO3IhiWDmJZ72kzMOlvEBMXTExLj9f+qvMbn3Rmx8d27Hpt/H9Z3AyU8HOPk54JhOICJGMvSO+6EkyjH6uvKlSZI5svWhUbu1pEyh++W+X9fUa4EAIBkvmydSLbbrIAhotD6uvLvQ+OXCGRLuus+MkauCw3domnaC5wCuci3rS6JFFA/UanM2svN87YVPpZkcz55ZCNzLOHqfNCeKdt3DCBFsjlBEh9dXV4LkCJZAQ37Msl/MG5yvmT1TsKaO+JJNnurP8ts0AEenxcrSQltqh2Qd+Im50t4jvJRiAmOhwcslt3aktnxs6dofSPLz83ZdzDoh5ZZoz2xyYtToomJwwUY6Oq1k87MpLAagyW67rRQgQ9GmsxEVl2TpZH9JQBdW5YJtgDgmOmUhgA+1SyZHxpiav3IYqv2ttWbZHM5OFit14t9ORfdkjTT5VfvAwBS2m44zJjbCKj2Vj9wfXgAtQDHGmz2JO65rAWeN84BoBTQqoZEUyshEc/mWi4BQHTo2nSh1+gk6BGjiiSS2JrZIXvaQKfxhQbWnvzgi43oqbkRcEI0+RHRoRjoLje5UDtswuInKhVxbE9YxI4wmn8iTIZ2mwYhLBwwwTq5YJ1tNxYGMC52ONFj8axr2w7Vtplf4PF5sRLbPwe6Vee4inQuGNWfIcWcVAgFtzcrOxOW3qTT+PIVbG9+0N9rvR4+HLkxgqlokpWCTO21j+J6Iz9RqYhjjVRi/BKZgFZHU+tHdZqSUZ2bS5CK2WNZcRm5U6Hwptm3p+zwLVm60M6dR0xgngi4u+k3nc8l9XnSeEa6vXPGHwuCvj7j8wClymnDSDS9eNGkYpZNWsd8OJJxDEB3TsPMQmw3EsBhh4zccBzBfVjQ36h2tEadBrVth3izNydI1mZa00qICYiv9z3lK9d/9WLPY4+NbDH29j12oPCJYyf87t3zGIO5PUow2LDDVyQPwR5ZxQSAEsIEgPmTSXCMXyIT0FlHU6JpawdOooyfPGSTp32z94jf+4PvXDdNlDGE3ghe3tS7idypUAxaxDQCxxo+ayS8xLFrM2kvLRKm7cjNy8ndGDdyU4SrsPD7m35z7a/HGl/+l+4RFdNgnPb+fwUrUuZ/fpyDFNMJaFuanNgIDgBgIdHPW62q8S/h61Z6m07p4hNl8aUAAER9XZOPTESjm05Z0VQgF9mENQevOhpfiPJj6ifTzdl2bcNnjcLV9AIPFnT51WU7FQpx7Oad9DJC6u4bACzgL0oVVrpSBR4xLDNmPHjpRd2GV67P8Rp5m8Q7P3r+v//m/ulI4C3DtDGY26PKZK0RhPbTnPgIUnetlbK1o1+1eGoybdrD55P6Nv3mWoD/3REb37/v8d9f+uUffkLXi7YvchW0fhUxSiQsk7LBoDqNFHNYFi28df7b2Yy6eHjAsrgb/6rsDHty5JXqAPC/ZT5//CiovWOGUxNEDASJJsL9xGXmLeMBaEuz88+M91wmNAujDO/8/mr8C2L6XRYtNGzZ0CH+Ga2M3Nkar70Hgy7/gI3cFEEbJJoI91OZvx3ZlyPiz7m77w8tPnPuTZv28P79kRMyoghiS2Zn7DO36Nz8YiNrT37whQYUj3I/SDQRiHHg8ccf/mdui6/3PQDw9bnXoxsu1BgacudflZ2J/0Rrj5YrrbP25AdXVqOV6qMFEk0EYhzYubldEmneS8Xnp6FEM4B793cZ115c0TfNc2QJ7Oya8ceDT/xvmc/9B2gh0SiCRBOBGGuSV/auesH6cD+Xc/dS88Cw4xyve8qXr69O7nn88ZHlsk//2H8dDiz+kvPTT0guRx0kmgjEmDJ/HrFrm92+DRxfu90tsVkPXnmpOyOti4UPt0kwiZGY9vFnAZ8e9TfdRpVlxwgkmgjE2OHrfe+PuS0DjEeOHyWajz328F+e02VmXCNjncPz44+eR45x/3Qk4GY/+iseU9DHjUCMEdOmPXz/7ZbBa9E5vj9N83z4zz/X/x/ltaCAH0e8z/0HHiUn/P6rMLBbhwqfjQNINN3F1vCc5T5g1B5+saNlnKeyaG6hMtz8kPj1ExkXjozDJAJ2Fy4MBaOqoGL3+bEaM0P86Qvwl+caP6de49v+HDOn7HR2oXO34+Z8JeYDQGvjy5vdscHT1szO6AUOtrZcKDEe//QfcwW36dzk6zM+fyx44qp2phsmhHAK+qLpxYuWh1ii1Y/YU+ePEgG7leHwXcWqvXR3zHQWVtYBuVT37ao3u0Z5IHrEhX74AlfzxenPraeI98t6Pn1hWQ44oZv4tj+L+e6SSwBYnqDPSHP8SYWF0pLLc7Wz9+YH/wOtVB9v6Itmv7b2S3PBQS9etFwaDUg3bdjTnL1nvOcAALAqKBSunxh1xRyRrqyMk2M4HDdnWxhcqBkojoWNH/JiNrwgfqmw8XPHHYcgjjsXJxqOu0kx5wpu/+HfrzrdveESvic/uO4i2z2zQbiGcxm3fm2rDjB/X/SbN+FY8sRU/Mt6aZ+YT7R8+paDZwur32psILi/2Mcd+1lRsFn39+9Wz5rpzDa/LW2zNu4Q/ko5DynmxMGVmCYxaev3kvFHMx1f1xzc4/CSvkzRfNZ80q4Z+KwvC5+janj3NZNdl/bm7Ff1lkZh70nS5/YdLoIUJY81wlgAAHYhUeY1LIdkyRb5pvkGa3Bz1YKjiWwq2rhqwdFEOJHRKSpcGAoAAMR3FRm2huqqBUcTA8H2km3MNGThUbNx13bqZNZRMEczSRxEVNe8uWKleXdBm7ECdhcuhFMnm+aZr95u/uB3V87Ren/cSAFovmirdnyVdNLDtsX1vD/2D3d6esJ7b7SGBI+c3hnAta7HP/hT0IlStFJ9wuGcaPIjRBxTa8XkrHiRGrxjoALaXIrUZSuaAQAASz4uURwP7nyxo2WPtv5Zn6hIHwCzIG7lBIO+7DUTgMUxx5KPS6IGD8fipSv1ZYqaswBLP45RLA9fumewEJN9XUki2SV/WCsLV6wEgMEK6JjAlYVsVcHJVedJeV2YtYjK3izZIt80n2VWQ1iyZUHWogu7z1/JOH9l6Jgm5Zgv2SLfNH/gh5F1QC6F5g8yrpyj5iw/+qb1DqGJK7jfVazKoHQ5Y8v1c3TiDBkBfCAahvnkCrs0L4jnhAGMvWhmrr0mX9zPqIv+5vQPDz1x9EvO3btILiciTMtdmHNBpjaVhtlXYcLAw1lgUmsdXSrueLfY8sJUf8UUJcWDAFqoY15yqr6kGACw5Gd9oL35LK3xzOYqwNlLekXITE4qQDGEBcwE0H+/Z/BYZpjVsKSEbJBRSQtrjvtcTWfG/PA5fIDzAIvmZsxnEd9VkIoJAOf2XqBn+g3BqnDpLKOqwGw/nr9SGBO0aX7QGugiZ2uV+PPXf/h1uNSLRacAXCwPB6KrZjhBJG4SIBFzAejGKGPlAdgI96SBfHH/xlevMepy8JPAj/5fAGFCmwRPXBiJpjUXhPEV0njF5Cx9sUdb/6wkShkTpYTB9ubSj2MUdvV+qA0LW17TdpSFC5/BoNgEqT5Clqm+SA8u0NJ1B8Bn3lY4uwcAsKi5GLRr6anwmMGfjYNRVeO2nNKSJ9hwu/OczQqkczWdGfODghcBuLAsKcSbdg0OGsS+EbNhAW66UPPyr1yrhxQS/ON7b7Yy7bVo4a0jx7hINCcyTj56ZdLUtZuwEAF/5KYTD1PJizXZipqydgheHpNTFrPjPSqhtfTjGEWIqb6gJltRk62oOayy/UXQf98OrLk+YQBhz/iy2rUlxQ5vThstYQRqAjllkijQHn7VJRWeurTfoKVuJnrNqt+qefm505+C+NOvxC85PSds1oP9u9VsGs9BDkASSRT/6fuIpyafMTJ1cOl5VZOBVlXlCcrZVynpJKUQAOP4AAythmdLtUaWb1QqFjUX6ktdFbilSTxWezOpztmKmuzxXxI/GM0tAlhz3PfDeO6aAWYFLVlkPbMkJggHQ4drq9+rtQTgATHDVXDD5+Cg0zKwHKsrukyABzlXFc7DA/7j9as0F6sPJsD/7p8PXqZZshwx9jgpmr4ieQima5+sYU0rGMcHQG9qAQAw6fQAPlgYAJCJb6n9kqpivdqIRSklUdBX76KZSWIeyzFurGF57poBgB1MqpVNNnwEzl/5WzuEJsqzzDK3ZMuCLKvkGTt0ACFBa+jP42hnG7Ckv567hHxJxUybXX1gqbBLA/hc+dBOekYAH4ibY/ar9Mqq7uXLXPpVnTnjwf7dauXL1z1QKmjiQTumiYml0aFWEdHVV5Vrhmk+cRmohjaLhM6+2jyvLDy9jAcAYNQe/vpO+nLbrqaSv+ujlvt0/N3OKrS7ISs8pwwATPUFDcP773Zjme8/Yi9nOXrhxLwVK5UrjioBbjd/UHArQxlEp9+RN09e3SLfRHYkEzXnba9WBB+QWzL1VJLdUR7fnOHpysqoyDog31QYvsm2i6v0XGqFXywIewkcrmDHtym40No4RuuNohcY/m1jh1tutWVDZ1jonV27+T/+iHYwmkCgapSM2Bqesxws2XAXwJKPS6L0tos6XV91NKXh5nwl5lyo2TBofXvsGzEbFhA2D6TTIy70w20BV96vYSa1Af53/+fQP7znMPtaDsX9+x43+6dXVHm9mcdHBconDmjDDvqYF3i6I8c9049lXfRpPdNuQorpHD3ZX/R8+kLMh2/Y62aGeMMCXPNFDTPFBIBKQrcNl7zIhUraT1LOmPHgj7ktdBTTYJx2o396/63pN/un37w1/Wb/tJv90/upY/K/aTdvTTfdnoZKVkxAkKVJA4sD7nhJvHOkBu8wPyZEYiSfL0I4j3t3OYoL/XBbGAa0dzn6963tiribpAKSakjJYv80Ug3Jl/2GaXTKqCEmLEg0EQgEggEowIxAIBAMQKKJQCAQDECiiUAgEAyYrNnzjicDbt++ffs2s8SJl1Nj9fejFCYCgaBAliYCgUAwAIkmAoFAMACJJgKBQDBgssY0pyyC1F1rpVS5GKPq4LvFalfvaLuFqDtX7wMAwOI//nJ9eOfBxNqqkVr6iUpFWH1dXdaQYWpOgVwUAsSwbaYI3OR8CQ96yjIbYKdCwQPtmbKSY2MwItFwuLq81tV7cTJjV4vx/sbqQxe5a9OFXkb1Z9vbdNTFtOgDG72qYv9a5Oooo4cTlqYXL/r5xfHPS/nOpVUQLtFa/Hb2zu3ZO0sdbj3vDOQWedkFWvcXsHz95+sXguoTe8XEd8viSyM5bh9sKkHojQDGWz0APfR2CZ1Q6HQEANzSEVBL3Bp4sai26mpgUvXP08ZhYjRhbmlyIkNQEUrEyKRFH1gZqDnxyV532Qw6ZUW5m271iEHo3fYTOhQ9JZllo3XvG4TO9mVR2gn/UyuTioRFaS67UaMCU0uTLKlW3z7V/SPECPhseSWCfbUq+53xnsgjDmm1TVoIvSP/Rr/3k8uGJxfnvD7m86EFM0sT4z/lC7rLmptYwCjNZ2ITtzEnkdrI3D6emKDMTTLvjGloLHybuiJM25EhbC0sgtT1YjIOqS3Nzj9j7iVMfd18HgAMqkPvFLU6uqQ9tb2A5g5lNjO0H8tZbCOe9luKYMnHJVH2z/JbQ6Jpc4Vsg+oTO0sB45fIBNRGm5ioVE6dbm8qV/aSh6ZuExm4HHDeehJAd6qiaa/dqPhumSzK4v2YWj+q05QM/6YwfonM/0rdJRCZO+qaki5ZzB27GxJtdckaAgCS+bJ1/t2nuv0TQ3EwtX7UBGkyAW47Hz9RqcgcdrC74YisDHovftbFI+rPL9JrT5RvL6Os7mMN+wZGM8n4oxltw77cHoeXzJFQbnK+hGfXDCJ3KhTeZKjRtktPWWbDJUuj6NC16YFXDzdASqyENcJY5LSpkKh1zjZvxI6i2qoVEUny6MXvDIiGkzF990TznYWJaGLicAHW11TWB15T0EEn/7Us+iVI3Zgq3F+sJpVRCqqD2cVqqllGnrdV5tjijPXaU9uzK0lFS1LGnSEvxWWuF4Pq0M6iQcW3EpS5STxtafY7ZwDIXnk7uCN/SwSpu9ZK9ad3bq8EIGU3JxNc0U3zFp+KjhYgt2WS5HxM7gFqf2lQXfjFi4LYYOy2d8xNmuQKDSVJhENN4STKsfq6cqUJkvmydSLZbirnQznmyXzZutCBfbZEyqKg9aOKkYRyIHiUTNbeVJ7US4qdqMCP0ugtkZHQVJ5E/jj4iUpFsgLCLN+YIJHVlFSHlcj800SmcxVN8+SiJXx8r4ZI5svWhZpOVZTvBSDfY2kkI910F3h83kAFtLkUeDmzjPygOJmxqxNi47XV5bU9ZxuJ1eLASOgxCyI3ggfaM2RyhnLMOZmxq8UOhpOkx2rPlO07BpAi2ZwgSU5xIMRkX2ZJpKLvriet9OIDjJhCHHMYuOe+glDM1NY+9l+DiYAwLVXKNqoOWiy+1uL9pIjFKaQsg6rYrGitxUWNBuD9LMHS1WonVn6vBfDmCsk7cucA3OweXK5QkLqYB5rTFrGr3H9aCyyhTDDCFBOWSdnaU/vNE1QXV2uAN8+5KjcAALCVF8Uy1ReZN0Uu7jimMkEIZykAufun8YqeurRH1wEwJ8D6U8r3Y8PVVsbBTGtmvETXTQDuM/KPM+6PAxAmhooJYGvJ9na3A/jilBG895JNdt7+EgBRT6V5cehuszF4OYmheHuTxQQmslp1wPHfwnxWLoP7sKDfcXaIKN9utRN1F6/3A+7DsxxzZZnU2+RkCnnQc5leOt6auD92XQswm4MDAETjswG0P/QMHos2mn4DBM4b6KGTidBxNDOBgaXJiY3gmNprG6doMDPIhwWGRtXgfyohdw4Y1XU22qe+oDaIhf4CgGHrt6qLqzXixKSc3CR7xxx4fmzQVtm645X/0CxL9OENf0OhvzcAKzEvJ9H2rIErBHDuCxYWMBOMdtWQWr7pM0p9OakAxXd6jRA81ycMTC0AsJUTDKb6byzfDR9/XwD6Ndtdgchq1ZWKRKVyeo45HWzDCOQY1kNTtwkAAwDoIwjqCAAwzBcAF8WX2s/NHwMY5g8mfpt4uU3VkafXiJ9eAwDQXt64/4SzsyfNxtjN+QOcZQAgjUGu7QkqeV3bVpcgVAi4HGjTAS4S4P2NNm64E9QSt9KB9xRVaZ7zdKAX9NSN7qKosYOmaHrxBBzQ1U/CKucTmMr92ZWUd782VwqgOb1zv4t1bBhEP13DpNMDhPAsNY46vq6xqW6k7x4bxQQAgN6mpApK6dbJBescBD2ZQCqmNSLJKZCLfOl1tQnC0qP8/UYqnsc0pjkcuvzqfUA5y5vzASyrIFMkmxO4/Y3Vh/IJADIiKbT0uvRDjyIhUBTdVg7cJ1k9dfku5pcIvRF4PMnmfOplw2FnVNign4iFyOiJJsb3wwCwqMXxUdaTAvliAZhaK1STvyblyHTqjcD3Dhpstal7boJYKBOA2pLDWSBkO/S7HaMuendnESmd4XFQWQnaXgNI58XBGYv6xf2MDwbVCKtK1N03KN/fTZ5LS9cdkPpGpXa0mNUw7BlfFtzRFQOkBseEDFcGTtNrgIWCNFCP2RJlMmCK8Utkgnl+AIzEyxaMjVt9cPqjm/pIL753wuSyyWRLimQzKYW1wOHgAEOr4TF1Q3Tsk0/jHAgEF81MAEgRSlj2WSPG8L0Gh8UnBvRimqZGVfmXVdb/KtpNYGqtqCr/ckooJgCoi85rgZe4K9X82yxI3UgeV/5DA2xpqvmCIDVNzDY0ljFMvwT5sMBwoxMAoFWlNgJ/WaY5Khq3cRkPtNWD80UDOHNaZWBJ1yuHjmLGZebl5OblZCYM2cKOPboOwKLSgqk6w6nBKVLMqNKaSyRhfkPHqKrOdzoKSAEAANFNwGjF+zA2DoTezh9KUObm5eTmDfOx2GEy2MRSbbP2w6M71UbgobICP0bTHXU4HByA6KkFoBYn4dxoAKDMTPunU4imVsJLHLtaDFcvukX6zWM5R9r8QDD0DzI0Bam7mHyHRwX0GCVdKvO3a1N3rc3II1OIRtXBd0mTrnJ/dmfajoz1OVKyIU0v23aVEtgtVFIXvbuzW5mblJObZL603RL4jsvMW2bpJiUHpUZsLX77EOxaaxvWtF/hxJ3jYB52K4dYy2NylgMYyaKY+oOKhuTjElsfnMqPF3cce8Y3nWxswaYYMhRdUb8SIXWwZAQA9l6q85fJEuXx5DRH9mrtgow42dG8EmiArg16yFLo7z3svQdi0hS1+a8zRyfbm+rqBTI6ledLNHUAsnW2YU0Gq45OdL7mdBDTnoFqaGPuHWsoe0qhSFdI0oH0l33SJbZddflqbb6Ep1Xb5bjtbogr8hUKAKuPPxR2Y1GM3MtKWvTiJ0FzYvCXp7VHD8AGnp0rNsZM1hpBoaF+Tuyn6RxoP81BbA3PWT7Tzj0ftOoI0qIPbIzQn/gErW+fNHCT8yXgjsfYOZmxq8WErXvOaNWRz5ZTK6V9VS87fCKIXMLshgSA06BdjhDMCQuY6eiMqdc27lpUW/Stgb/ylYn6XAfCHmqBp1s2/uB6447OUIGCEUgrWillXy8d4hnKuCQxG4yq0vFSTECWJh2QpekA2yeFAABAX6ZoHlwRCo1LKQAAIABJREFUnv4uR4jxwuKAO14S7xx4fJ75MSESu62MhmHoXY6EaTsypKwxXCIyFEg0RwaJJgKBsIDccwQCgWAAEk0EAoFgwGRdchR8tevevXv37t1j1OubGayRGyEQCMTQIEsTgUAgGIBEE4FAIBiARBOBQCAYMFljmi4Q+0bMhgU4ANHwfs3747reC4FATD7or9P04kXL7Uuq6S6XV4/hFmB2POtxz7VEUOwbMRsWEH95rvFzt88NgUA8wjCzNB+hjeCq32pZ/pU4MgOgcLyngkAgJhEopolAIBAMQKKJQCAQDGBYwlcgX0zV9xrPgCYCgUCMF9P8uE/Qa/njrc5m7VXqPxPr6YjIEOhpvfXT6M5vKPgeD0gY9bo2/XHrC8I/WvCM+GF3yc0RCkkgEAiEBSfd876m+j7A/DheIzeduHy++fTLZewNXy37dB935NYIBAIBLq7TxNhzACZtMh3f9ucYSXfjy881jvdMEAjE5MHZRBDmNQugr3siFtikCz4HB02juzZdRSAQUwPnLE1+RHQoZmprZljodHJAbRA9nkVIEAjEhIW+aPIj4qN8zS/6mr6seiQVE6gC4izgL0oVVha7qYY4AjGuPMm787MIE47dP13pfePmFHx42p3Q//g0l8snszPOgDOnVYvXStk3epBiIiY30zwfypf0r0npXrTQQJ7J3tq+/S3Bqb8xK2yMsGXq/uZkBPCBaGhxcCVhmZQNBtVp5JwjJi2z2fdTVurSUnRBAT/ann/ssYfv/L6t6R9YZ9eM8ZrbZGcKiqZ5lyPQfHF64C5HcZl5y3gA2tLs/DPjMjkEwkXmCm6vSe15Lqlv5gzHq5hnzXwgFhFINJ1mCopm9Vs11UNdq8zfjuxLxGRksCc+DCz8/hhM6VFlCoomAjGB8PQEhs+1DWQoT3wofvrJo6wCxTSdB4kmAjFu+My59/Kq7n0Hg5zrPqInPpjbdzxf/4/Qm/3oD9950GeHQIwPLPx+wd4fdL2PMe3IyBO3cOdHzy+/9j30Z3+NdibTERG2INFEIMaBmTMe5OepI8NNf7/BYAMHpp44SWfXjM+KuSUn/W4ZpjGfKWIgSDQRiLFm+vSH+/7QsjDKAADTpz2k08UJTxwAzn87+0gxt6LK6/4DDyfnihgEEk0EYkzx9IR3stviYqmdbqYNK5queOKfHeNeaZ3l0lwRjkCiiUCMHR4e8PutmhUKveXM9OmORRN54hMWJJruYmt4znIfMGoPv9jh6DGjsWTR3EJlOE69uH4i48KRcZhEwO7ChaFgVBVU7D4/VmNmiD99AWwqjOLb/hwzp+x0tpO187g5X4n5ANDa+PJmN+2GtXl9569+abdrw2D33FlPnH2k2B954mMAY9H0FT0fwSEPTe21ZVqTu2c0cUkN3qHk3fy65uCe8Z7JsATsVobDdxWr9hpHeSBW1gG5VPftqje7RnkgesSFfvgCV/PFaZuazMT7ZT2fvrAsB5zQTXzbn8V8N8olALy6ukv58vUBJ6eZLU3kiU8WGIkmPyI+yldXXzVVdu5gxJ7m7AkhpquCQuH6iVFXzBHpyso4OYbDcXO2hcGFmoHiWNj4IS9mwwvilwoZFriP487FiYbj7lPM1Od1//a7jsHnp3k66Ylf63r8s2PckpN+/beQvzim0P+4vXjRUb66+qompJgTmSVPsAEYWCqPBi/tE/OJlg/fIgZfqn6rMebPMb/Yx/3cjTYjU5Yn6N96zfEfzpMhdyq/akCe+CSCtmhifD/M1P7do6GYqcE7lDwWeTwgCkmGJin0ZYrmswBh70nSpRh5irU8Jme53VW7Lu3N2a9ag/xh70nS5/YdLoIU83Adtt693ViDJvO0b/aaIPbtzo/+ve+Ki+93yRb5pvkGa3Bz1YKjiWwq2rhqwdFEOJHRKSpcGAoAAMR3FRm2huqqBUcTA8H2km3MNGThUbNx13bqZNZRMEczSRxEVNe8uWJlCNjdEKhecOpk0zzz1dvNH/zuyjla748bKQDNF21DbClAOulh2+J6Bu7PMjY8u6j/vTfaPIbQN/pyeedHz69KfY8UI098nKEtmjgLA8KExy6ONkc0WytUmslYIGhreM7ymfUFNSXFAABLP45JPw6UVKUG74jUZSuaAQAASz4uURwP7nyxo+W1hmwYOqZJOeZY8nFJ1ODhWLx0pb5MUXMWYOnHMYrl4Uv3WKXWrKFkX1eSSHbJH9bKwhUrAWCwAjomcGUhW1VwctV5Ul4XZi2isjdLtsg3zWeZ1RCWbFmQtejC7vNXMs5fGTqmSTnmS7bIN80f+GFkHZBLofmDjCvnqDnLj75pvUNo4grudxWrMihdzthy/RydOMPQu/xRFHZpXhDPCQMYe9FcIDH+8Z2WoVLkNEGe+ISC7r8BhuEAWIR/fVV5NQAAJpZGy6Uw+XQTS37Wx6hqIBUTAM6WamOUvlGpHS3FAMUd7xZbWprqr5iipHgQgGvZcLNBCnD2kl4RMpOTClAMYQEzAfTf7xl6rIt9ORfpV5anhGyQUUkLa477XE1nxvzwOXyA8wCL5mbMZxHfVZCKCQDn9l6gZ/oNwapw6SyjqsBsP56/UhgTtGl+0BroImdrlfjz13/4dbjUiwUwsmjG8nAgumqGE0TiJgESMReAroceKw/ARrgnDeaFmz78v1cYud4DQJ74BITRD5fusiWgaWps14VGBPAxTePkyp/P9GMBSyrJKbM768ejDpZ+HKMIsb1yZ5Tm0dJ1B8Bn3lY4uwcAsKi5GLRrz47SYE7Cn42DUVXjtpzSkifYcLvznM0KpHM1nRnzg4IXAbiwLCnEGx+5EW3I7VZNF2pe/pWDCCkDQkPu/GnvD85twoY88YmM89b+bYMJOKxZAJNLNAEAjKqGd19zMO2lH8coQkz1BZQdGvaeJF06apPQEkbwCbZESI3awzbBUAQD2m8Q4D9yM9MNWiJIbrca+0bMp18RNks+GRLof7fwP3/wmXOPaUfkiU986P7DmHTdJoE/hkGfWWxmsTEwdd8erYmNFnd6jRDsO9OR1mMcH4B2bUmxg25uZ2kSj2WfNZp4aG4REEi56u7g3DXDpvlBSxZdsRibS2KCcDB0uHb/ai2xYUFATFxb9ZDeND4HB52WgeVYXdH18oKAoDinwqC+3vcK//hDgP9dRr26dY/nvB9ScQ554hMd2nXPTZpeExYyX0wlkTmxERzoa51kvjkAmEr+roeQ8B3vYYMv6fQAPlgYANhnzCmKTTcBgiN9BnV0FvNYjnnaN3uP+L0/+M51faBz1wwA7OBFAGCXDR+B81f+1g6hifKsRdSJJVsWWI4BjB06gJCgNfTncbSzDVjSX89dQr6kYqbNrj6wVNilAXyufGgnPSOAD8TNsXlQi826/6e9PzzJYxzX8efc5fr9hBRz4kPfBejX1lZAtFwaT64mMbXXfjk5Hwfa05wN4TnLbcKa5oU+Z19tnlcWnl7Go05+fSd9uW1P/cEC7Q5luLmjgwVJwCKvWn38obAbi2LkXs5y9MKJeStWKlccVQLcbv6g4FaGkta+t0fePHl1i3wT2ZFM1Jy3vVoRfEBuydRTSXZHeXxzhqcrK6Mi64B8U2H4JtsurtJzqRV+sSDsJXDoTePbFFxobRyL9UYzZzzIz7sS8ZSTfxi7/k3j6fHwsxKue2eFcC8eEaKF4z0HZ3jW4x4Jo17fzGCN0nyYgiUfl0Tpbd1z11cdTWm4OV+JORdqNgxa3x77RsyGBcyjk3GhH24LuPJ+DQOpfeyxhwfeVT+7yNX1JO/8J+/TozSCtIhxgrZ7jnArM/0GyvdMPxaA3oQU0zl6sr/owRbEfPiGvZOeId6wANd8wTyfU0noAJe8SNvmm+b58N1dba4rJgC8/q/atb/qdv0+iFECWZrjhe1TSQAwdE4fQRv37nIUF/rhtjAMaOxy5OEBb72mSX1eN1wjhvzf/wr++EiAG2+IcBdINBEIV/m333a8usb9ez3tOxh08BN6OTvEGIJEE4FwFQ8P8PR86OkJ0zwfenjAtGnU/z09wHPaQ09P8PR86OkB0zwfenjCNE/zGU/wnPbQE6ztqV6e4OlBtam7yL7zI4qhTSzQAloEwlUePoT79z3u34efAC0YevSZrKLZ8WTA7du3b99mFgNkUPfPhv5+l3ZbQCAQjxLI8kcgEAgGINFEIBAIBiDRRCAQCAZM1pjmlEWQumutlE0eG1UH3y1Wu3pH293wOtxdNm7xH3+5PrzzYGJt1Ugt/USlIqy+ri5ryDA1p0AuCgFi2DZTBG5yvoQHPWWZDbBToeCB9kxZybExGJFoOFxdXuvqvTiZsavFeH9j9aGL3LXpQi+j+rPtbeY1rmnRBzZ6VcX+tcjVUUYP2psQ8xVSwaA9LkxtqtrJt2fHpKa1+O3sYgBIUOYmebvljmdfrTkL1GJ7t9zQyus/X78QVPvtFRPfLZNFEU1Jl9y5FHyKQeiNwINbPQBwgwCeW/YTxePzYiU3GvbljnopJZ2OAMBv6QioJW6lD0jPFtVWrXglqfrnMHF1k/bWcJqyKrv6QF68aHkI0Y8UEzEEadEHVgZqTnyy113ffZ2yotxNt3rEIPTa0R6ipySzbORWznGDsPv9LEo74X9qZVKRsCjNZTdqVHA2psmJDMFM7a2PRp01hPvx2fJKBPtqVfY74z2RRxydzrX95ccZQu+oLoB+7yeXDU8uznl9zOdDC+diml48AQd09ZNzazgXiNuYk8gnD+3jiQnK3CSzb2toLHybuiJM25EhbC0sgtT1YjIOqS3Nzj9j7iVMfd18HgAMqkPvFLU6uqQ9tb2A5mY7NjO0H8tZbCOe9k/HY8nHJVH2T1hZQ6Jpc4Vsg+oTO0sB45fIBJQniYlK5dTp9qZyZS95aOo2kYHLAeetJwF0pyqa9tqNiu+WyaIsoSNT60d1mpLh3xTGL5H5X6m7BCJzR51tuMDuhkRbXbKGAIBkvmydf/epbv/EUBxMrR81QZpMgNvOx09UKuKYp8ko/rAy6L34WRePqD+/SK89Ub69jLK6jzXsGxjNxOPzYiXUv8yAKCQZmqSgIqHRoWvThZSPzJJszre/atelpyyz4ZLlZtGha9MDrx5ugBTzcFpb795uLLvJWOds80bsKKqtWhGRJI9e/M6AaDgZ03dPNN9ZnBJNTmQIBn1TzMwk/7Us+iVI3Zgq3F+sJpVRCqqD2cVqqllGnrdV5tjijPXaU9uzK0lFS1LGnSEvxWWuF4Pq0E6LUFpIUOYm8bSl2e+cASB75e3gjvwtEaTuWivVn965vRKAlN2cTHBFN8271SnMpTqVkpyPye3s7C/ZVdYEAFi8KIgNxm57x9ykSa7QDBvT5CTKsfq6cqUJkvmydSLZbirnQznmyXzZutCBfbZEyqKg9aOKkYRyIHiUTNbeVJ7US4qdqMCP0ugtkZHQVJ5E/jj4iUpFsgLCLN+YIJHVlFSHlcj800SmcxVN8+SiJXx8r4ZI5svWhZpOVZTvBSDfY2nkuMRtucn5ktmN1fvyCQCAFMnm9FgAUjfx+LzAy5ll5AfFyYxdnRAbr60ur207VNs2dEyTcsw5mbGrxYOHwyXpsdozZfuOAaRINidIklNspNasoWRfZkmkou+uJ6304gOMmEIcc5xxz339OWBqa59ScXxhWqqUbVQdtFh8rcX7SRGLU0hZBlWxWdFai4saDcD7WYKlq9VOrPxeC+DNFZJ35M4BuNk9SDFBkLqYB5rTFrGr3H9aCyyhTDDCFBOWSdnaU/vNE1QXV2uANy/OmXdLspUXxTLVF5n39yzuOKYyQQhnKQC5kZ3xip66tEfXATAnwJoo5Pux4Wor42CmNTNeousmAPcZvL3+QHB/HIAwMVRMAFtLtre7HcAXp4zgvZdssvP2lwCIeirNi0N3m43By0kMxdubLCYwkdWqA47/FuazchFOppBnVJ/MN/vsx9QNRvzJp8n5E+XbrXai7uL1fsB9XM79WRP3x65rAWZzcACAaHw2gPaHHhfG0vQbIHDeQA+9tfjt7J3bx9HMBGcsTUwcwoG+pimWNA/yYYGhUTX4n0rInQNGdZ2N9qkvqA1iob8AYLAg2qAurtaIE5NycpPsHXPg+bFBW2Xrjlf+Q7Ms0Yc3/A2F/t4ArMS8nETbswauEMC5L1hYwEww9tXb7CTf8k2fUerLSQUovtNrhOC5PmFgagGArZxgMNV/Y/lK+Pj7AtAvP+wKRFarrlQkKpXTc8zpYBtGIMewHpq6TQAYAEAfQVBHAIBhvgC4KL7Ufm7+2LB1B+O3iZfbbKD/9Brx02sAANrLG/efcG7uXG8cWMLV+UK7s9449SZSJJsT7LYIveXcMCNSS9xKB95TVNFkztOBXtBTN7qLosYOxqLpKwjFTG3NU8rMHCUq92dXUt792lwpgOb0zv0ulmRgEP10DZNODxDCs5Tr6Pi6xqZQh757bBQTAAB6m5IqKKVbJxescxD0ZAKpmNaIJKdALvKl19UmCEuP8vcbqXge05jmsNgte7QhRbI5gdvfWH2ItEOjQ9emCwe3chOE3gg8niVCSjQctgmG0sagn4gxQIaiiYlDOGBq1UwtMxMAOvVG4HsHDbba1D03QSyUCUBtyeEsELId+t2OURe9u7OIlM7wOKisBG2vAaTz4uCMRf3ifsYHg2qEVSXq7huU7+8mz6Wl6w5IfaNSO1rMahj2jC8L7uiKAVKDY0KGq2ik6TXAQkEaqMdsqR0ZMMX4JTLBPD8ARuJlC8bGrT44/dFNfaQX3zvOueyeGwTwZnMBHASMOThAT13+mMwwRShh2WeNGMP3GhwWnxgwi2n6CkIx0LVr3LCn/yRDXXReC7zEXanm32ZB6kbyuPIfGmBLU80XBKlpYrahsYxh+iXIhwWGG50AAK0qtRH4yzLNUdG4jct4oK0enC8awJnTKgNLul45dBQzLjMvJzcvJzNhyBZ27NF1ABaVFkyVzEwNTpFiRpX2LHUZ8xs6RlV1vtNRQAoAAIhuAkYr3oexcSD0dj/pCcrcvJzcvGE+FjtMBptYqm3Wfnh0p9oIPFRW4Mdouu5Hl6/WAleRF8oZfElHAODcaACwz5hTED03AHiBkW6bi3ks50ibHwiG/kGGpiB1F5Pv8KjAxNKkzMxLY+h6TSAq87drU3etzcgjU4hG1cF3SZOucn92Z9qOjPU5UrIhTS/bdpUS2C1UUhe9u7NbmZuUk5tkvrTdEviOy8xbZukmJQelRmwtfvsQ7FprG9a0X+HEneNgHnYrh1jLY3KWW8pz6g8qGpKPS2x9cCo/Xtxx7BnfdLKxBdsy7kVX1K9ESB0sGQGAvZfq/GWyRHk8Oc2RvVq7ICNOdjSvBBqga4MeshT6M3tuyqQpavNfZ45OtjfV1QtkdIool2jqAGTrbMOaDFYdneh8zckg5iB6SjIbkvMlNmFN60KfsqcUinSFJJ082eCTLrHteSm3mpsXq8hXKADA4YIkwMmrVh9/KOzGohi5l5W06MVPgubE4C9Pa48egA08O1dsjJmsO7eHhvo5sZ+mc6D9NAexNTxn+Uw793zQqiNIiz6wMUJ/4hO0vn3qwcmMXS0mbN1zRquOfLacWintq3rZ4RNB5BJmNyQAnAbtcoRgTljATEdnTL22cdei2qJvDfyVr0zU5zoQowfXe+Dj8FxvHIDoobNOM61opZR9vXSIZyjjksRsMKpKx0sxAVmadECWpgNsnxQCAAB9maL57KBm9Hc5QjxS2D6VBABD5/QHMvQuR8K0HRlS1hguERkKJJojg0QTgUBYQO45AoFAMACJJgKBQDAAiSYCgUAwYLKWuwi+2nXv3r179+4x6vXNDNbIjRAIBGJokKWJQCAQDECiiUAgEAxAoolAIBAMmKwxTReIfSNmwwIcgGh4v+b9cV0ki0AgJh+MFrd78aLlIeZ9V02tFarx2+7oWY97riWCYt+I2bCA+MtzjZ+7fW4IBOIRZpof9wl6LcmavfVVdbXaq83anhmB86WBD7u6+n8c3QkOAd/jAQmjXtemP24+1FbeffpXAu6s1nKV2yeHQCAeXWjHNDG+n23NXpOm1wQY29FeYwgEAvHowigRhFkLTMEcHAOT4abbJ4RAIBATGdqiaWps14Gv6Hkp3wvAixcd5Ts1t3BHIBBTG/oxTbjd06wlfMPCI0NCn/S6WV9V13R7VKc2LC7HNAEI/2jBM+KH3SU3R6i+g0AgEBYYZM99Rc9HcEzttWVaEz8iPsoXyONRnd6QuJw9p8gQf/oCF1obX97c477JIRCIRxfa6zQ5sWbFBADN5fKbvGh5yHxxX+2kLYCOb/tzjKS78eXnGsd7JggEYvJAN6aJYTgAYbIKZL9pnIuVugw+BwdNIzIwEQgEE+iKpknXbQJOhIhPvSYrU3Y9igXQhWk7cvNycjfSrPmKQCCmFLTdc1Ojqhak0VGL46OoE+P6RNAoou6+AcAC/qJUYWWx4+JOCARiysLk2XNTo6p8KsT/zpxWLV4rZd/oQYqJQCAGMnV3OcoI4ANxs8XBlYRlUjYYVKfRZh4IBGIQU3iXI9B8cXrgLkdxmXnLeADa0uz8M+MyOQRilBAKboeH3caw+6crvW/cnIJ/+G5jspbwddc6TQTi0YaF3//FMn3Kc73z51HrXe7e9Xj9D6F/KfMZ34lNXtAPDgLxCOLhAVEiY8pzvb9Ypp85w+7Buccff5iTdbXhO7yza8Z4TW9Sg0QTgXik8Jlz77mkvpTndGFP3hmqDTbrgWQ+gUTTOZBoIhCPAtM8H8Y8Y0hZqUtYenP69Icjtsex+2Mwq0cSJJoIxPjg4QG+Pj/19j3m4n0C/e/+ckVv8oreQP+7NLv8+KPn6UpvF8edsiDRRCDGAQ8P2L5Re6Vl1vG/+Dl3h8cee/hPz95MWalbLLvl4cGgo+m2Z/buJ1EC3WnQB4dAjDWkYq79Vfdrb4Y60T3syTvJK3UvLO/znsNs9Uj/relflvoe+W+u9hqKZjoPEk13E/aeJF16p0zRfJZO69TgHUoeC/R0248mAbsLF5r/ho2qgord58dhEmveXLEyBIjvKjL2GsdoyAzxpy+AbYm92DdiNni3OLtbIDfnKzEfYMj9Bj084N9+17H2V90AcO8BAxNx1swHyxP0ySt7nxYz/mhqvpldfMLvb3+f8+OPU/d5FnfBSDRtq1HqLpdX943GjMaZ1OAdSt7Nr2sO7hnvmYwtrKwDC0Pbv131Ztdoj7Rki3zTfMOJjAtHRnskOsSFfvgCV/PFaduipNVvtSz/SvzpPid2WcW3/VnMH2Z7VlIxM9KoT/n+/ZFF08MDRBFEynO9/6zQM83edOse/5+Tvv9z0q/jOjIt3QZ90eRHxEfNaq2o0vQDuSFxfOwjqptjSXHHu8Ud4z0JAFgU+NQso6p01BVzRI68eXIMxZSbsy0MLtRkFw4435P9fsuH28Q5GacHXRqWOO5cnGg4PrRibvutVTEB4P694UTTa/a9lT/XpzynCxcyK5Jw/75H+bk5xV/5VdXOvs/EmEXQga5oYvynfE1tlm2N+prq++KjQvhefY/kRkdTD/5sfORGjxov7RPziZYP33K0M2xl26fygA0viF8qbPzcwWXmeHjAtsyOV1fb/S795Eg0PT1B9rQhZaVOEXfj8cdHXjxky1XtzGNf+X3xtW+f3tWkPGIo6IrmLDZmf+ImYQJf9hyAySiaW8NzllsfIuv4uubgHjIWSb1J1vKYnOXkIRVtXPpxjMJHe/jFDnKHj4GBSyo0aeGO5SSoGt59zbLrKJZ8XBKlb85+VW/XxWi9M3XzuX2HiyDF3KDDLlzgs74sPNju/ZjqCxpKisnjx1/6Q8TTs0wXj6g/v+j0B0SyasHRRLY1uLlobqEyvOfUyayj5CU4kdEpModBB0YhVy04mhgIdpdYWQfk0lnkOdbKwhUryUNzTICMZpK0kaPYYHvVZixW1gH5U+qKQli4aT75WV2n7fhzIwWg+aKteojLpJMufwP/3KGqMoJSzDUDLfkB7jmX89OLv+hNXtnLe+JHRve/86Pnqb95F3/FudjIeshMZhGMcToRNHl3bk8N3rHcp2NQ1LLltYZscCqmuTU8Z7lPx9c17+4BoPQUAACKO2qSeIq5PmFgogQx1UfIMtUX6cmrpGO+9OMYxeCngFm8dKW+TFFD6fXy8KV7SIH2WV8WHtzenP2q3jKWjWIyxjb5A1LliqNKALAK2bAErixkqwpOrjpPhikXZi2i5HXJFvmm+SyL8C3ZsiBr0YXd5427f3cSho5pUo75ormFyvABH0bWAbkUmj/IuHKOaiA/+qZ1hvh8+ab2b1dldJFvZ+WbAUfoRGYzAvhANDja5spMz6VW+IU3DuDaV93DA7Y6UkwAIH3n6dMfxsX0pzynWxrT78kwT3OpGTv2Fed//+pjIKa5NEsEbeiKZl+3DkShIZzGyzoAIEsGAehGb2KjBw9ngUnttgqUWPKzPtDe7FBkz17SK5bzlm3taNkDALA0iccyautpCZw1n372kl4RMpOTClAMkIrNAei4pCcbtXzTZ5Ty/Hi2He9+/u8MHMqurIyTAIOMSlpYM+znajoz5ofP4QOcB1g0N2M+i/iuwmIqntt74Rz9uw5mVbh0llFVcIW6yfkrhTFBm+YHrYEuSnatEt/V1A6hHPYS6BpxxFgeDkRXzbD7/7XfIGBBwEvQQ/MDjZUHYAPuSSrmbxwpJgAEBfy4NbP/xV/0+fn+RG8ICoNx2olS32P/6/d9MzZya4RboW1p6qqrmmIXi55fTL2sv6zjRIzWrEaVPdr6ZyVRypgoJQy2N5kz048FHX/XDz2WT1SkD4AewGdeCHR83TGcbTMixaabSgimbghhz/iyQF8zsRL9/Nk4GFU1blswtOQJNtzuPGej5udqOjPmBwUvAnBhUVSItzujuOR+g6YLNS//ysYs9fCALRuGVEzPaWK0AAAUWUlEQVQA+I+dV5mOVHeRfewrv7JK7zto8dA4wcQ911VXlVteePGiwdR10/0zGn1MJS/WlFBub0zOcjDahR3dPFb9FVOUlLMU9Ge3coKN2sOuCtydXiMEh4TnlJnvXzD+CzwnJe03CPCn0Y4wtNNoVf1WTTVA7Bsxn35FUEs+ScVc92v3rEjo7Xvsf/7Xr+SkX3sHWjw0zjgb0+REhmC6y5M6dX72VXPE0Dbs6BRzAjAASnaDfDEqEQQAAC2vaTvKwudtBYj06fh7s0tmJgBs5UWxJsRK+KHR3CIgkHLV3cG5a4ZN84OWLLpiMTaXxAThYOhw7f7VWmLDgoCYuLbqoT30EG8cuomhMkUO7lnR9fKCgKA4gLMesHl9p+uKef+Bx9lqr2Mn/Cqrvegs6kSMAc5Y+BhfsVjE6Wt6FBZpYhwfAL2NYhabbgLp/9rR2WcCFh4EAGCXZwfQf98OLClvKQCQEhwyoKv++3YIXh6jCNF/7x4/eiYndZirj7/0B/F7e4QvPe36QJpbBLDmkAVIF80tVIbTcmjPX/lbO4QmyrMWUSeWbFlgOQaAc9cMAIGiVbSncbSzDVjSX89dAtRMMuaziO+aXV3OWdilAXyufJj3xI0UgOkG8yyQhwdsXt+pfPm6C7OD9s4Zez8M+qcXxb99Tfi3v89BijlxYLa43Zc8NLWpyhsna/Fee8kDMGeizegPFmh3KC3+L2XWtbx2pf64RFEWoyC7fM0xr0mCs682cMyXjKqG7Es8yyWqQak2RskDldbOPLRb9sRLL+PBwKVFjtjTXBYZo1DGRCmt50YtvECmXBJXHE0EgOsnMr4VFdLa5v/ImyevbpFvMufiie8qMmytwqMXPnhCbr6tJY1juyAJQsmrt5s/+N2Vc9CVlVGRdUC+qTB8EwA4WpDkFD2XWuEXC8JeAseJs9g3wvjQ8xfG6408Hj6n7FzurGLevevx10rvY19xvlGxHzwYuT1i7EHlLsaA1OAdSl+1CwuDLAx+sN31VUdTGW7OV2LOhZoNg5UxLvTDbWG6Lxg+ESQX5P8hPddn2XEn5tKsnlX8JedkmU//LbQjxIQGJeBGHZ/1Sh6orrhF1IJ8By4wIUOoOqSYTtGT/UUPtiDmwzcGOOncnG1hWGsjM8X08ADJ8+87oZh373r8+rfhL74S+VkJFynmxAdZmqOH2QF3q/uMJR+XRNm+C/uniRDMccsuRx4esOk3nZlrnfTKq+pm//a1uXfvosDlJACJJgLhKi4qJsnpSu/NvxeghM/EB7nnCIRLuEUxAWBZ3I3c319l+hglYuyZ5sd9Yrzn4Ax8jwckjHpdm/74KM0HMTVxl2KShAtv+3r/dLZmjlvuhhglkGgiEM6z6TfXfpvhHsUkEc0zzZr1oOab2W68J8K9TNaYZmio3+3bt2/fHovVov39aLMthGOmT384a+YDbNb9WTMfzMIeYDMfzJr5YNas+7NmPsBmUcfUSezBrJn3zSdtjmc+mDFj4G//B3964r8KJ6U1MxVA6xsQCOe5d8/DYJxmMLq0Lds0z4czZz6YNesBZtbTWbMezJjxANXzmZgg0UQgxpn7DzwI0zTChDbEnBygnzIEAoFgALI0JxmC1F1rpWzy2Kg6+G6x2tU72m4y4o4NRu1Y/Mdfrg/vPJhYWzVSSz9RqQirr6vLGjJMzSmQi0KAGLbNFIGbnC/hQU9ZZgPsVCh4oD1TVnJsTEaODl2bLrxFdzg8Pi9WwnLT9KJD16YLvYzqz7b3iPJiJSyi4XB1eS15LS36wEavqti/Frk8Cg0ciia5N4epvbZMa//t9BU9H8EhDx1cRYwBrcVvZxcDQIIyN8nbLXckt8ijKhq5l9d/vn4hqPbbKya+WyaLIpqSLk3Kff8nBoTeCDy41QMANwjg0d9OGY/Pi5XcaNiX61xN93GllriVDl43CB0QPTcA7J5TKaqtWvFKUvXPYSx0c6Bo+oqej+Do2ltNvoKBTX1Fz0fg1P5GGF8hjVYA0k3EkKRFH1gZqDnxyV53fYt1yorykVtNRQi926q3uBeifHvZqP2bET21Nq+K0k74n1qZVCQsSnPZ+RoBu5gmxldEQH2Vw2rmnNgIjqn9O2pHOJOmrt2EhQj4ozw9xGTFZ8srEeyrVdnvjPdEHnF0usla4NAVehztcqrf+8llw5OLc14f7dHtLE2Tpmyo0BOG4WDq7rPWouX7YQBYkC9oHoGtiOkStzEnkfqdsI8nJihzk8y+raGx8G3qijBtR4awtbAIUteLyTiktjQ7/4y5lzD1dfN5ADCoDr1T1OrokvbU9oJhC4A5nKH9WM5iG/E0Di5HbP8svzUkmjZXyDaoPrH7zcf4JTIB5UliolI5dbq9qVzZSx6auk1k4HLAeetJAN2piqa9dqPiu2WyKMvuT6bWj+o0JcO/KYxfIvO/UncJROaOOttwgd0Niba6ZA0BAMl82Tr/7lPd/omhOJhaP2qCNJkAt52Pn6hUxDFPk1H8YWXQe/GzGFRdtrHgjjXsGxguJCOeZrQN+3J7qIAgeYYl2ZxvvkhGG1MkmxNwa4hwYOCSCk1auGU5CerPtrdZ3icnM3a1mCjLbLhk18U2+EjePPDq4QZIMTfQ2oULIncqFPZxov7G6kP5BEBPSSa1y60uv3qfg4+lqLZqRUSSPHrxOwNj6OTfhVv+IpjVPSf6qT8YTuxiEVxu0kWIcAyDvqnhoZMZGIt+CVI3pgr3F6tJZZSC6mB2sZpqlpHnbZU5tjhjvfbU9uxK8l8uSRl3hrwUl7leDKpDOy1CaSFBmZvE05Zmv3MGgOyVt4M7cs5HkLprrVR/euf2SgBSdnMywZVvCZZ8XBIF2sOKjhYgg56SnI/JPZvtL5mLGFuSSIsXBbHB2G3vmJs0yRWaYWOanEQ5Vl9XrjRBMl+2TiTbTeV8KMc8mS9bFzqwz5ZIWRS0flQxklAOBI+SydqbypN6SbETFfhRGr0lMhKaypPIb7WfqFQkKyDM8o0JEllNSXVYicw/TWQ6V9E0Ty5awsf3aohkvmxdqOlURfleAPI9lkaOS9wWj8+T8LSDopa1bYdq25yKaXKT8yU8bcO+7T0AlJ4CAABRXtsjSQgURbeZBREXCfD+xoZL5FVS1lMkmxMGh1xxSXqs9kzZPkqvJckplEBH7lQoeD1lmQ2XLGNRikmPou+uJ6304gOMmHh0AZpLjrww8xvH+IrFAqPKoQv/CCNMS5WyjaqDFouvtXg/KWJxCinLoCo2K1prcVGjAXg/S7B0tdqJld9rAby55HdOyJ0DcLN7kGKCIHUxDzSnLWJXuf+0FlhC2aAg8wASlknZ2lP7zRNUF1drgDcvzpl3S7KVF8Uy1ReZ950r7jimMkEIZykAWYPTeEVPXdqj66AKJVHw/dhwtZVxMNOaGS/RdROA+4xcnhb3xwEIE0PFBLC1ZHu72wF8ceorvveSTXbe/hIAUU/ZVTh0t9kYvJzEULy9yWICE1mtOuD4b2E+K5fBfVjQ70SNjiHgZAp50FPmUGSPXdcCLkngUi9ThBIWcfUiraGt+fRj17UAsznkJ4xzvQG01y+RjWp7rhrBi1nVUE2/AQLnDfLQK/dn79zuFjMTaFua/SYCgMwFQX1VrcZ8njBNDTMTgnxYYGhUDbb1hNw5YFTX2Wif+oLaIBb6CwAGC6IN6uJqjTgxKSc3yd4xB54fG7RVtu545T80yxJ9eMPfUOjvDcBKzMtJtD1r4AoBnAuMhwXMBGOfbZX2lm/6jFJfTipA8Z1eIwRbCtJt5QSDqf4by3fBx98XYGx+VYmsVl2pSFQqp+eY08E2jECOYT00dZsAMACAPoKgjgAAw3wBcFF8qf3c/K319hwRv028PMj68uk14qfXAAC0lzfuP+Hs7HvONhKrxbGb8we6vc7B9cZBq7403FiBkdBzCSDyKS5oG8prHTelB9FzA4BH3RCiuU+yQFs74RL9dN3z2wYTCKJCWiuqzBUoMQy3+zohmFK5P7uS8u7X5koBNKd37qcZuhwKBtFP1zDp9AAhVGkjAOj4usZma3p99xj6Ib1NSRWU0q2TC9Y5CHoygVRMa0SSUyAX+dLrahOEpUf5+41UYJJpTHM4qHhfimRzgmRzPoDRLuzoXnQXr/eLhREpcOkYN4JHNBx2VeB6bhDA4yryFQoAAOhvrHZigadBrxm5kQvQFU2TiQCAXp2lZq+XbwAGuh+mipPeqTcC3ztosNWm7rkJYqFMAGpLDmeBkO3Q73aMuujdnUWkdIbHQWUlaHsNIJ0XB2cs6hf3Mz4YVCOsKlF336B8fzetuGjpugNS36jUjhazGoY948siS2ukBseEmIYpTKTpNcBCQRqox2SxMYA5YIrxS2SCeX4AjMTLFoyNW31w+qOb+kgvvnfCmBFkgihFstku7OgU3jgHgPpEeLO9qEQQAADUttUlCBVPcSElkKdVl7hkZgIAd6kYd20lPN9rcDDd3dB+jFJ3qd2EhcwXkw4JxpeFYKb21tFV9AmEuui8FniJu1KF1AlB6kbyuPIfGmBLU80XBKlpYrahsYxh9CTIhwWGG50AAK0qtRH4yzLNUdG4jct4oK0enC8awJnTKgNLul45dBQzLjMvJzcvJzNhyBZ27NF1ABaVFhxGvkwNTpFiRmtNTcxv6LXwVec7HYaWAACIbgJGK96HsXEg9HYecYIyNy8nN2+Yj8UOk8EmlmqbtR8e3ak2Ag+VFfgxmu6ow+Hg9usZLf6vPdpb/YD7kP+etnl2gEs/9ABLuDQFAEgJ5g7oeumHHuBJNidwtT+4x482xzedIm1+IBj6B8tS3Mac3Lyc19NGSgzQwt7SxMTS6FBL8D0k+vkQANDVVzVpAPq1tRUQLZfGk/lL3eUplguqzN+uTd21NiNPDADkkiPSpKvcn92ZtiNjfY6UbEjTy7ZdpQR2C5XURe/u7FbmJuXkJpkvbbdkzuMy85ZZuknJQakRW4vfPgS71tqGNe1XOHEdbW5rt3KItTwmZ7ml7pD+oKIh+bjE1gen8uPFHcee8U0nG1uwLYZcdEX9SoTU0eIPgL2X6vxlskR5PFXCd0Sv1i7IiJMdzSuBBujaoIcshf7MnpsyaYra/P9/e/cX2tQdBXD8iG5K0uCwtupcvNZmGrFrzFqamrJqacsc1PkgvlRwKjgsKHQbKAzLGA7HKMIeNmRP4sA6cLI5fXCzJbYj3doJ0VJZhRobM6dtXd3snz0sbHtoUpom1Xvb2Jvc+/083j9wng7n97u/e87+2O7k3e7O62tKXlbx3vlQp0jJ/snbmhpOHV28d3jGm5jx4lOeSOxLdMzN4+25jd6J9W+0rOu4c+nVFbsqq+sro684T7qiL3x940yON3prpPdM3f3yiVvRB3pveHJd0tsWVx7GHXty7al27VGzxzpwvmWgvtI7cSJKRNP2Qq2nbLWELib5Z/fe0IgoWTZHkUOCs16J0U/z6einmeDddcfeWBS3PE84dSS1ns8POocunuZ8u8FZKxq9q4NaDgZNJ/HHdi2njpa88/029x/+3cn/CNpc11hln1SazAJdjqBd/vJFya6MPZy879rU0XRtWNn21rP/QwM62vC+1yW9l2afMSW6YZp45bGav55qm7a5bfcvT/MPpaO21C4S9s8+YwqVphpUmklM/lNIRESGrlTfakt4TH2XI2SY2AI8pV/nc+q8uwrjjnvF/U00rSd0OYrug6WmJZiIkDTVIGkCmMDyHAA0IGkCgAaZ2rn9pb4HkUgkEoloeuuXhVlPfwgApkelCQAakDQBQAOSJgBokKl7mrPg/WDTgSKryOiNEz+dmJOWQACMY/7S3BcTLirOii3r8lbJQPDxP1NuLbZ7tr6y1mkdvfVQ106ayrx/x2l66/cFz4uEW3/75mywf629ZseShWf7u59RhAAMaeryPLtge1nFytFgkoxoUarLKkrkgTEmr7Z/eDskuRv26R0HgMyiYRqle3l/wMfMXgCmpnYapQy2+41RYgLALPD1HAA0MHHSHLgZFKU6z6t3HAAyiYmTpnxV37z7iu3Ad1Vffjq1hz8AJGfCc5ox1vfObnL1d+1+s0vvSABkDhNXmtYXrBLqSruhygDSmokrzek4ao/sc2elYgo5AONRP41ScVZszI7dyi7YXiYiY3cCHV1GO7jZ2/9IJEuU0p2O1hT1xwdgGPFJc6wr4Jtuhy/U4zPJlPOW5kDZXrft0QAZE8BU5t3T3LdckdE/bye5U1nltslwoJnFOYAEJtzTjHU5ktC3zVO7HG2ua6yyi4QvN5xs0SU4AGkuU6dRvjYvwrgLAHPPvMtzAJgBkiYAaEDSBAANMvVD0I//LZD5C2S+3nEAMBkqTQDQgKQJABqQNAFAg0zd0xQRKR/qPBS0iQxfc5V88pze0QAwhaSH28d7c4zd7YgfoxbXzmOwJ+n8tblXPtR5KDhwqbjmtN6RADAB9SN8Facn7+/uC37fBb/v6t2xHKen0JLwkA7alvzQJ/kFI3rHAcAUVI/wlVCP70JPdCDlX+HgoFiWZadF1gSAuaN6hG8SFqtVJJ27aW4+eOx1he4bAFJohl/PLRaryNjoaGqDAYB0N6Ov55bCdWssMng9nB5l5tHulTtq+k+VZ+1ti7/R+lkDPTEBpNQMKk3F6cmzyGBPd9o0cj+9Yv3OZTmHrv167v5HescCwNi0VpoTp5HS47yRiIjsPXL7cLHl/M7iGr0jAWB4mirNxXZPsvObestf+kj6bEf1DgOAGWioNLMLtqyypF3GfJLxr+fDgVMfNwX1jgWAMage4ZvjdeaIiCV6cVyaj/C9NzQiSpbNUeSQIJMlAaSC6hG+g+1+3xzEk1K9TT+H3VV2vcMAYCAG6HI0snG1DD9cmOSOo7bULhL2n6PMBJAiRuhyJH3O9VO7HFW+fXyrXWQk8EUDKRNA6mTqCF8A0IUBlucAMHdImgCgwf9ylv+4WzxNpgAAAABJRU5ErkJggg==;" vertex="1" parent="1">
                    <mxGeometry x="490" y="-45" width="309.01" height="190" as="geometry"/>
                </mxCell>
            </root>
        </mxGraphModel>
    </diagram>
</mxfile>